<?xml version="1.0" encoding="UTF-8" standalone="no"?>
<!DOCTYPE svg PUBLIC "-//W3C//DTD SVG 1.1//EN" "http://www.w3.org/Graphics/SVG/1.1/DTD/svg11.dtd">
<svg xmlns="http://www.w3.org/2000/svg" xmlns:xlink="http://www.w3.org/1999/xlink" version="1.1" width="343.0687pt" height="103.65622pt" viewBox="0 0 343.0687 103.65622">
<g enable-background="new">
<clipPath id="cp0">
<path transform="matrix(1,0,0,-1,-285.183,568.6082)" d="M 0 0 L 1024 0 L 1024 768 L 0 768 Z "/>
</clipPath>
<g clip-path="url(#cp0)">
<path transform="matrix(1,0,0,-1,-285.183,568.6082)" d="M 0 0 L 1024 0 L 1024 768 L 0 768 Z " fill="#ffffff"/>
<g id="Layer-1" data-name="P">
<path transform="matrix(0,1,1,0,141.65888,2.868103)" stroke-width="2" stroke-linecap="butt" stroke-miterlimit="4" stroke-linejoin="miter" fill="none" stroke="#000000" d="M 35.93018 4.355929 L 35.12764 3.759327 C 20.15582 -6.208556 -.5725033 4.775586 .01209718 23.43617 C .58389 41.68793 21.66757 51.53552 36.03093 40.25955 "/>
<path transform="matrix(-1.284059,.9545642,.9545642,1.284059,150.034,36.1593)" stroke-width="1.25" stroke-linecap="butt" stroke-miterlimit="10" stroke-linejoin="miter" fill="none" stroke="#000000" d="M 0 0 L 6 0 "/>
</g>
<g id="Layer-1" data-name="P">
</g>
<g id="Layer-1" data-name="P">
<symbol id="font_1_1">
<path d="M .521 .57100006 C .51166668 .5770001 .501 .58366677 .48900006 .591 C .47700004 .59900006 .46300004 .6063334 .447 .61300006 C .4316667 .6196667 .41433335 .62500008 .395 .62900009 C .37633337 .6336667 .35566668 .63600006 .33300004 .63600006 C .29833339 .63600006 .26533336 .62966677 .23400003 .61700007 C .20333334 .6043334 .176 .5856667 .15200001 .56100007 C .12866669 .537 .110000018 .50733336 .096000019 .47200004 C .08266667 .4366667 .076000008 .39633338 .076000008 .35100005 C .076000008 .3116667 .08200001 .275 .09400001 .24100001 C .106000009 .207 .123333338 .17733334 .14600002 .15200001 C .16866668 .12666668 .19600003 .10666668 .22800002 .09200001 C .26000003 .07733334 .2956667 .07000001 .335 .07000001 C .37633337 .07000001 .41300003 .07700001 .44500003 .091000009 C .477 .105666678 .50666669 .12166667 .534 .139 L .557 .07700001 C .53033336 .05566667 .49733339 .037333337 .45800004 .022 C .4186667 .007333333 .377 0 .33300004 0 C .2836667 0 .23866667 .008666667 .19800002 .026 C .15733335 .044 .12233335 .068666677 .09300001 .10000001 C .06366667 .13133334 .04066667 .168 .024 .21000001 C .008 .252 0 .2976667 0 .34700004 C 0 .4036667 .009 .45400004 .026999999 .49800004 C .04566667 .54266676 .07033334 .5803334 .10100001 .61100009 C .13166668 .6416667 .16700001 .665 .20700002 .68100008 C .24766667 .6976667 .29033337 .70600005 .335 .70600005 C .3576667 .70600005 .37933336 .7036667 .40000005 .69900009 C .4206667 .695 .43966673 .6896667 .45700006 .683 C .47500006 .67633339 .49133338 .66899999 .506 .661 C .52066668 .65300008 .5336667 .64500007 .545 .637 L .521 .57100006 Z "/>
</symbol>
<symbol id="font_1_5">
<path d="M .39800004 .504 C .39800004 .454 .3826667 .41166673 .35200004 .37700004 C .32200004 .34300003 .28166668 .32133339 .231 .31200005 L .43700005 .036000004 L .43700005 .028 L .37800003 0 L .155 .30400003 L .067999999 .30400003 L .067999999 .013 L 0 .013 L 0 .693 L .17400003 .693 C .2446667 .693 .29966668 .67633339 .33900003 .64300009 C .37833337 .6103334 .39800004 .56400009 .39800004 .504 M .328 .504 C .328 .546 .31366668 .5770001 .28500004 .59700009 C .25700004 .61700007 .21966668 .62700006 .17300001 .62700006 L .067999999 .62700006 L .067999999 .36900003 L .171 .36900003 C .191 .36900006 .21033335 .37133337 .229 .37600003 C .24833334 .38133336 .26533336 .38933338 .28000004 .40000005 C .29466669 .4106667 .30633334 .42466674 .31500004 .44200004 C .3236667 .45933334 .328 .48000003 .328 .504 Z "/>
</symbol>
<symbol id="font_1_4">
<path d="M .38400004 .48600004 C .38400004 .45333336 .37800003 .42433334 .36600004 .39900003 C .354 .37433336 .33800004 .3536667 .31800003 .337 C .298 .32033334 .2746667 .3076667 .24800003 .29900003 C .22133334 .291 .19333335 .287 .164 .287 L .07300001 .287 L .07300001 0 L 0 0 L 0 .68 L .17000002 .68 C .20200002 .68 .23100002 .6753333 .25700004 .666 C .28300003 .6573334 .30533336 .64466676 .32400004 .628 C .34333337 .6113334 .35800005 .591 .36800004 .56700006 C .37866674 .54300007 .38400004 .51600006 .38400004 .48600004 M .30800004 .48400004 C .30800004 .52533337 .29533337 .557 .27 .57900008 C .2446667 .6016667 .21166669 .61300006 .171 .61300006 L .07300001 .61300006 L .07300001 .354 L .16600001 .354 C .18400002 .354 .20133336 .35600005 .21800003 .36 C .23533337 .3646667 .2506667 .372 .26400004 .38200004 C .27733336 .39200006 .28800003 .40533338 .296 .42200003 C .30400003 .4386667 .30800004 .45933334 .30800004 .48400004 Z "/>
</symbol>
<use xlink:href="#font_1_1" transform="matrix(24,0,0,-24,2.790987,59.98821)"/>
<use xlink:href="#font_1_5" transform="matrix(24,0,0,-24,19.350987,59.98821)"/>
<use xlink:href="#font_1_4" transform="matrix(24,0,0,-24,33.030988,59.67621)"/>
</g>
<g id="Layer-1" data-name="P">
</g>
<g id="Layer-1" data-name="P">
<symbol id="font_1_9">
<path d="M .193 .261 C .21233334 .261 .23266669 .266 .254 .27600003 C .276 .286 .29466669 .3026667 .31 .32600004 L .31 .55700007 C .30066667 .57100006 .28633336 .58333346 .26700003 .59400007 C .24833334 .6046667 .22866668 .61 .20800002 .61 C .18666668 .61 .16766668 .605 .15100001 .595 C .13433333 .5856667 .120000008 .5723334 .10800001 .55500009 C .09666667 .53833338 .08766667 .51800009 .081 .49400003 C .075 .47066669 .072000008 .4446667 .072000008 .416 C .072000008 .36200003 .083000008 .3226667 .105000007 .29800005 C .12766667 .27333335 .157 .261 .193 .261 M .057000005 .103000018 C .072333339 .08966669 .089999999 .07900001 .11 .07100001 C .13 .063000019 .153 .059000017 .179 .059000017 C .19500001 .059000017 .21066667 .061333348 .22600003 .066000018 C .242 .07066668 .256 .07866668 .268 .09000001 C .28066669 .10066668 .29066668 .11566669 .29800005 .13500002 C .30600003 .15366669 .31 .17733336 .31 .20600002 L .31 .25800003 L .306 .25800003 C .28733335 .23733334 .26733334 .223 .246 .21500002 C .22533335 .20700002 .20266669 .20300003 .178 .20300003 C .123333338 .20300003 .080000009 .22133334 .048 .25800003 C .016 .29533337 0 .349 0 .41900004 C 0 .45233337 .0046666676 .48400007 .014000002 .51400008 C .023333336 .544 .036666674 .57033339 .054000006 .59300008 C .071333337 .6156667 .09266666 .6336667 .118 .6470001 C .14400001 .6603334 .173 .66700008 .205 .66700008 C .22233336 .66700008 .24100001 .66333338 .26100005 .656 C .28166668 .64933338 .29966668 .6383334 .315 .623 L .32 .623 L .339 .65800008 L .38 .65400007 L .38 .20900002 C .38 .17366667 .37399999 .14300002 .362 .11700001 C .35000003 .09100001 .33433334 .069333348 .315 .052000017 C .29633335 .034666677 .275 .021666676 .251 .013000011 C .227 .0043333375 .20266669 0 .178 0 C .14400001 0 .11433333 .004666671 .089 .0140000139 C .064333338 .022666678 .044 .034333346 .028000005 .04900001 L .055 .103000018 L .057000005 .103000018 Z "/>
</symbol>
<symbol id="font_1_8">
<path d="M .36300005 .042000005 L .31400005 0 C .30333338 .007333333 .29333339 .016 .28400005 .026 C .2746667 .036000004 .26833336 .048000006 .26500003 .062000004 L .26000003 .062000004 C .24466668 .041333338 .22566666 .026 .203 .016 C .181 .0060000007 .15733333 .0010000002 .132 .0010000002 C .114 .0010000002 .097 .004 .081 .01 C .065 .016 .051 .024333336 .039 .035000005 C .027 .04633333 .017333335 .060000004 .010000002 .076000008 C .0033333339 .09200001 0 .110333349 0 .13100001 C 0 .14766668 .0029999999 .16433335 .009 .18100001 C .0150000019 .19766666 .025 .21266668 .039 .22600001 C .053000004 .23933335 .07133334 .25 .094 .25800003 C .116666678 .26666669 .14466667 .27100004 .178 .27100004 C .19000001 .27100004 .20300001 .27033339 .217 .26900003 C .231 .2676667 .24433334 .26600004 .25700004 .26400004 L .25700004 .31400005 C .25700004 .33266673 .25400005 .34833337 .24800001 .36100004 C .242 .37433339 .23433334 .38466669 .22500001 .39200003 C .21633333 .4 .20633334 .4056667 .19500001 .40900005 C .18366666 .41233338 .17266667 .41400004 .162 .41400004 C .14266667 .41400004 .123 .41000007 .103 .40200005 C .08366666 .3946667 .063666667 .38366667 .043 .36900003 L .018999998 .42400003 C .039 .43600003 .061999997 .44700004 .088 .45700006 C .11466667 .46766673 .145 .47300003 .179 .47300003 C .19700001 .47300003 .21466668 .47033335 .23200001 .46500004 C .24933334 .45966674 .26466669 .45100007 .27800004 .43900005 C .29133336 .4276667 .30200006 .41266669 .31000004 .39400003 C .3186667 .37600003 .323 .35433338 .323 .32900004 L .323 .117 C .323 .09966668 .32700003 .08466667 .33500005 .072000008 C .34300003 .060000004 .3523334 .051333336 .36300005 .046 L .36300005 .042000005 M .25700004 .21200001 C .24566667 .214 .23333334 .21566667 .22000002 .21700001 C .20666667 .21900003 .19233334 .22000002 .177 .22000002 C .14166667 .22000002 .11466666 .21200001 .096 .19600001 C .07733334 .18 .068 .15866667 .068 .132 C .068 .108 .075333338 .089666668 .09 .07700001 C .105333339 .065000008 .124000009 .059000005 .146 .059000005 C .17133333 .059000005 .19366668 .06566667 .21300002 .078999999 C .23300003 .093 .24766667 .111 .25700004 .133 L .25700004 .21200001 Z "/>
</symbol>
<symbol id="font_1_a">
<path d="M .07 .69200006 L .07 0 L 0 0 L 0 .68 L .07 .69200006 Z "/>
</symbol>
<symbol id="font_1_6">
<path d="M .024999999 .139 C .04766667 .11766667 .073 .10066667 .100999999 .088 C .12966667 .076000008 .163 .07000001 .201 .07000001 C .22433333 .07000001 .24433334 .072666678 .261 .07800001 C .2776667 .084 .291 .092 .301 .102 C .31166668 .111999999 .31933335 .12366667 .324 .13700001 C .32933335 .15033335 .33200003 .16466667 .33200003 .18 C .33200003 .19533335 .3296667 .20933335 .32500003 .222 C .32033337 .23466666 .31266669 .24700003 .30200003 .259 C .29133336 .271 .2776667 .28300003 .261 .29500003 C .245 .307 .22533335 .3196667 .202 .33300004 C .16933334 .3516667 .14100002 .36833335 .117 .38300003 C .09366667 .39833335 .07433333 .41333334 .059 .42800004 C .044333336 .4433334 .033333336 .4593334 .026 .47600005 C .019333333 .49266673 .015999999 .512 .015999999 .53400006 C .015999999 .5553334 .019999998 .57633337 .027999998 .59700009 C .036 .6176667 .047999998 .63600006 .064 .65200009 C .08066667 .66800007 .10166667 .68100008 .127 .69100007 C .15233334 .70100006 .18233335 .70600005 .21700001 .70600005 C .25433336 .70600005 .28800003 .69933339 .31800003 .68600007 C .34866668 .6726667 .37300004 .65833339 .391 .64300009 L .367 .578 C .34633336 .596 .32333336 .6100001 .298 .62000009 C .2726667 .63066676 .246 .63600006 .218 .63600006 C .17333333 .63600006 .14066668 .62733337 .120000008 .61 C .1 .5926667 .09 .5696667 .09 .541 C .09 .5276667 .09233334 .51533338 .097 .504 C .10166667 .49266673 .10966667 .48133338 .12100001 .47000004 C .13233334 .4586667 .14766668 .44666673 .16700001 .43400005 C .18633335 .42133335 .21066667 .40700004 .24000001 .39100004 C .3 .35833336 .34300003 .3256667 .36900003 .293 C .395 .261 .40800003 .22366667 .40800003 .18100001 C .40800003 .15100001 .4026667 .12466667 .39200003 .102 C .38133336 .079333338 .36666668 .060333339 .34800003 .045 C .32933335 .030333335 .30733336 .019333335 .282 .012 C .2566667 .004 .22900002 0 .199 0 C .15233334 0 .11166667 .007333333 .077 .022 C .042333336 .036666667 .016666666 .053000004 0 .071 L .024999999 .139 Z "/>
</symbol>
<use xlink:href="#font_1_9" transform="matrix(24,0,0,-24,146.239,64.64421)"/>
<use xlink:href="#font_1_8" transform="matrix(24,0,0,-24,158.047,59.98821)"/>
<use xlink:href="#font_1_a" transform="matrix(24,0,0,-24,169.63899,59.67621)"/>
<use xlink:href="#font_1_6" transform="matrix(24,0,0,-24,174.343,59.98821)"/>
</g>
<g id="Layer-1" data-name="P">
</g>
<g id="Layer-1" data-name="P">
<symbol id="font_1_2">
<path d="M .36600004 .61300006 L .07300001 .61300006 L .07300001 .388 L .33600004 .388 L .33600004 .32000003 L .07300001 .32000003 L .07300001 .067 L .37600003 .067 L .37600003 0 L 0 0 L 0 .68 L .36600004 .68 L .36600004 .61300006 Z "/>
</symbol>
<symbol id="font_1_7">
<path d="M .294 .61300006 L .294 0 L .22000002 0 L .22000002 .61300006 L 0 .61300006 L 0 .68 L .514 .68 L .514 .61300006 L .294 .61300006 Z "/>
</symbol>
<symbol id="font_1_3">
<path d="M .07300001 .29400004 L .07300001 .009000001 L 0 .009000001 L 0 .689 L .07300001 .689 L .07300001 .36900003 L .080000009 .36900003 L .39600004 .697 L .458 .67300006 L .458 .666 L .162 .36 L .485 .040000004 L .485 .032 L .42800004 0 L .101 .321 L .07300001 .29400004 Z "/>
</symbol>
<use xlink:href="#font_1_9" transform="matrix(24,0,0,-24,274.399,64.64421)"/>
<use xlink:href="#font_1_8" transform="matrix(24,0,0,-24,286.207,59.98821)"/>
<use xlink:href="#font_1_a" transform="matrix(24,0,0,-24,297.799,59.67621)"/>
<use xlink:href="#font_1_2" transform="matrix(24,0,0,-24,303.511,59.67621)"/>
<use xlink:href="#font_1_7" transform="matrix(24,0,0,-24,314.191,59.67621)"/>
<use xlink:href="#font_1_3" transform="matrix(24,0,0,-24,329.191,59.89221)"/>
</g>
<g id="Layer-1" data-name="P">
<path transform="matrix(1,0,0,1,54.109987,54.808229)" stroke-width="2" stroke-linecap="butt" stroke-miterlimit="4" stroke-linejoin="miter" fill="none" stroke="#000000" d="M 0 0 L 73.13803 0 L 74.13803 0 "/>
<path transform="matrix(1,0,0,-1,-285.183,568.6082)" d="M 410.031 509 L 419.631 513.8 L 410.031 518.6 L 412.431 513.8 Z "/>
</g>
<g id="Layer-1" data-name="P">
<path transform="matrix(1,0,0,1,189.97898,54.808229)" stroke-width="2" stroke-linecap="butt" stroke-miterlimit="4" stroke-linejoin="miter" fill="none" stroke="#000000" d="M 0 0 L 77.85803 0 L 78.85803 0 "/>
<path transform="matrix(0,-1.6,1.6,0,269.11698,59.608217)" stroke-width="1.25" stroke-linecap="butt" stroke-miterlimit="10" stroke-linejoin="miter" fill="none" stroke="#000000" d="M 0 0 L 6 0 "/>
</g>
<g id="Layer-1" data-name="P">
<path transform="matrix(0,-1,1,0,307.39897,99.377719)" stroke-width="2" stroke-linecap="butt" stroke-miterlimit="4" stroke-linejoin="miter" fill="none" stroke="#000000" d="M 0 0 L 22.30966 0 L 23.30966 0 "/>
<path transform="matrix(1,0,0,-1,-285.183,568.6082)" d="M 597.382 489.1401 L 592.582 498.7401 L 587.782 489.1401 L 592.582 491.5401 Z "/>
</g>
<g id="Layer-1" data-name="P">
<path transform="matrix(1,0,0,1,23.398987,98.377719)" stroke-width="2" stroke-linecap="butt" stroke-miterlimit="4" stroke-linejoin="miter" fill="none" stroke="#000000" d="M 0 0 L 283.84 0 "/>
</g>
<g id="Layer-1" data-name="P">
<path transform="matrix(0,-1,1,0,23.398987,99.377719)" stroke-width="2" stroke-linecap="butt" stroke-miterlimit="4" stroke-linejoin="miter" fill="none" stroke="#000000" d="M 0 0 L 29.50966 0 "/>
</g>
</g>
</g>
</svg>
