<?xml version="1.0" encoding="UTF-8" standalone="no"?>
<!DOCTYPE svg PUBLIC "-//W3C//DTD SVG 1.1//EN" "http://www.w3.org/Graphics/SVG/1.1/DTD/svg11.dtd">
<svg xmlns="http://www.w3.org/2000/svg" xmlns:xlink="http://www.w3.org/1999/xlink" version="1.1" width="750.0622pt" height="74.49982pt" viewBox="0 0 750.0622 74.49982">
<g enable-background="new">
<clipPath id="cp0">
<path transform="matrix(1,0,0,-1,-156.1046,612.5116)" d="M 0 0 L 1024 0 L 1024 768 L 0 768 Z "/>
</clipPath>
<g clip-path="url(#cp0)">
<path transform="matrix(1,0,0,-1,-156.1046,612.5116)" d="M 0 0 L 1024 0 L 1024 768 L 0 768 Z " fill="#ffffff"/>
<g id="Layer-1" data-name="P">
</g>
<g id="Layer-1" data-name="P">
</g>
<clipPath id="cp1">
<path transform="matrix(1,0,0,-1,-156.1046,612.5116)" d="M 488.2724 563.723 L 517.97628 563.723 L 517.97628 607.2669 L 488.2724 607.2669 Z "/>
</clipPath>
<g clip-path="url(#cp1)">
<symbol id="font_2_3">
<path d="M .131 .067 L .53400006 .067 L .53400006 0 L .0069999995 0 L 0 .012 L .42600004 .60700008 L .423 .61300006 L .04 .61300006 L .04 .68 L .54800006 .68 L .554 .67200008 L .126 .072000008 L .131 .067 Z "/>
</symbol>
<use xlink:href="#font_2_3" transform="matrix(24,0,0,-24,340.3717,35.324769)"/>
</g>
<g id="Layer-1" data-name="P">
</g>
<clipPath id="cp3">
<path transform="matrix(1,0,0,-1,-156.1046,612.5116)" d="M 506.1318 560.9695 L 548.9529 560.9695 L 548.9529 610.02029 L 506.1318 610.02029 Z "/>
</clipPath>
<g clip-path="url(#cp3)">
<path transform="matrix(-1,-0,0,-1,390.84828,49.542116)" stroke-width="2" stroke-linecap="butt" stroke-miterlimit="4" stroke-linejoin="miter" fill="none" stroke="#000000" d="M 35.93018 4.355929 L 35.12764 3.759327 C 20.15582 -6.208556 -.5725033 4.775586 .01209718 23.43617 C .58389 41.68793 21.66757 51.53552 36.03093 40.25955 "/>
<path transform="matrix(-.9545642,1.284059,-1.284059,-.9545642,357.55708,41.16687)" stroke-width="1.25" stroke-linecap="butt" stroke-miterlimit="10" stroke-linejoin="miter" fill="none" stroke="#000000" d="M 0 0 L 6 0 "/>
</g>
<g id="Layer-1" data-name="P">
</g>
<g id="Layer-1" data-name="P">
</g>
<clipPath id="cp4">
<path transform="matrix(1,0,0,-1,-156.1046,612.5116)" d="M 383.2724 563.723 L 412.9763 563.723 L 412.9763 607.2669 L 383.2724 607.2669 Z "/>
</clipPath>
<g clip-path="url(#cp4)">
<symbol id="font_2_1">
<path d="M .234 .35000003 L .005999999 .67700007 L .08100001 .69400009 L .277 .411 L .474 .69400009 L .54800006 .67800006 L .319 .351 L .554 .013 L .479 0 L .276 .289 L .07400001 0 L 0 .013 L .234 .35000003 Z "/>
</symbol>
<use xlink:href="#font_2_1" transform="matrix(24,0,0,-24,235.37172,35.492769)"/>
</g>
<g id="Layer-1" data-name="P">
</g>
<clipPath id="cp5">
<path transform="matrix(1,0,0,-1,-156.1046,612.5116)" d="M 410.2063 579.6949 L 492.5443 579.6949 L 492.5443 591.29489 L 410.2063 591.29489 Z "/>
</clipPath>
<g clip-path="url(#cp5)">
<path transform="matrix(1,0,0,1,255.1017,27.016724)" stroke-width="2" stroke-linecap="butt" stroke-miterlimit="4" stroke-linejoin="miter" fill="none" stroke="#000000" d="M 0 0 L 73.13803 0 L 74.13803 0 "/>
<path transform="matrix(1,0,0,-1,-156.1046,612.5116)" d="M 481.9443 580.6949 L 491.5443 585.4949 L 481.9443 590.2949 L 484.3443 585.4949 Z "/>
</g>
<g id="Layer-1" data-name="P">
</g>
<g id="Layer-1" data-name="P">
</g>
<clipPath id="cp6">
<path transform="matrix(1,0,0,-1,-156.1046,612.5116)" d="M 255.73 567.7483 L 285.43388 567.7483 L 285.43388 611.2922 L 255.73 611.2922 Z "/>
</clipPath>
<g clip-path="url(#cp6)">
<use xlink:href="#font_2_3" transform="matrix(24,0,0,-24,107.829418,31.299378)"/>
</g>
<g id="Layer-1" data-name="P">
</g>
<g id="Layer-1" data-name="P">
</g>
<clipPath id="cp7">
<path transform="matrix(1,0,0,-1,-156.1046,612.5116)" d="M 150.73 567.7483 L 180.43387 567.7483 L 180.43387 611.2922 L 150.73 611.2922 Z "/>
</clipPath>
<g clip-path="url(#cp7)">
<use xlink:href="#font_2_1" transform="matrix(24,0,0,-24,2.8294,31.467377)"/>
</g>
<g id="Layer-1" data-name="P">
</g>
<clipPath id="cp8">
<path transform="matrix(1,0,0,-1,-156.1046,612.5116)" d="M 177.6639 583.7203 L 260.00193 583.7203 L 260.00193 595.32028 L 177.6639 595.32028 Z "/>
</clipPath>
<g clip-path="url(#cp8)">
<path transform="matrix(1,0,0,1,22.559296,22.991272)" stroke-width="2" stroke-linecap="butt" stroke-miterlimit="4" stroke-linejoin="miter" fill="none" stroke="#000000" d="M 0 0 L 73.13803 0 L 74.13803 0 "/>
<path transform="matrix(1,0,0,-1,-156.1046,612.5116)" d="M 249.402 584.7203 L 259.002 589.5203 L 249.402 594.3203 L 251.802 589.5203 Z "/>
</g>
<g id="Layer-1" data-name="P">
</g>
<g id="Layer-1" data-name="P">
</g>
<clipPath id="cp9">
<path transform="matrix(1,0,0,-1,-156.1046,612.5116)" d="M 648.0633 567.7483 L 677.76718 567.7483 L 677.76718 611.2922 L 648.0633 611.2922 Z "/>
</clipPath>
<g clip-path="url(#cp9)">
<use xlink:href="#font_2_1" transform="matrix(24,0,0,-24,500.16273,31.467377)"/>
</g>
<g id="Layer-1" data-name="P">
</g>
<g id="Layer-1" data-name="P">
</g>
<clipPath id="cp10">
<path transform="matrix(1,0,0,-1,-156.1046,612.5116)" d="M 763.9834 567.7483 L 793.68728 567.7483 L 793.68728 611.2922 L 763.9834 611.2922 Z "/>
</clipPath>
<g clip-path="url(#cp10)">
<symbol id="font_2_2">
<path d="M .27400003 .374 L .28100003 .374 L .48300005 .68700006 L .554 .671 L .31300003 .303 L .31300003 0 L .24000001 0 L .24000001 .303 L 0 .671 L .071 .68700006 L .27400003 .374 Z "/>
</symbol>
<use xlink:href="#font_2_2" transform="matrix(24,0,0,-24,616.0827,31.299378)"/>
</g>
<g id="Layer-1" data-name="P">
</g>
<g id="Layer-1" data-name="P">
</g>
<clipPath id="cp11">
<path transform="matrix(1,0,0,-1,-156.1046,612.5116)" d="M 879.9034 567.7483 L 909.60726 567.7483 L 909.60726 611.2922 L 879.9034 611.2922 Z "/>
</clipPath>
<g clip-path="url(#cp11)">
<use xlink:href="#font_2_3" transform="matrix(24,0,0,-24,732.0027,31.299378)"/>
</g>
<g id="Layer-1" data-name="P">
</g>
<clipPath id="cp12">
<path transform="matrix(1,0,0,-1,-156.1046,612.5116)" d="M 679.7063 580.2801 L 762.0443 580.2801 L 762.0443 591.88009 L 679.7063 591.88009 Z "/>
</clipPath>
<g clip-path="url(#cp12)">
<path transform="matrix(1,0,0,1,524.6017,26.431519)" stroke-width="2" stroke-linecap="butt" stroke-miterlimit="4" stroke-linejoin="miter" fill="none" stroke="#000000" d="M 0 0 L 73.13803 0 L 74.13803 0 "/>
<path transform="matrix(1,0,0,-1,-156.1046,612.5116)" d="M 751.4443 581.2801 L 761.0443 586.0801 L 751.4443 590.8801 L 753.8443 586.0801 Z "/>
</g>
<g id="Layer-1" data-name="P">
</g>
<clipPath id="cp13">
<path transform="matrix(1,0,0,-1,-156.1046,612.5116)" d="M 795.6263 580.2801 L 878.1643 580.2801 L 878.1643 591.88009 L 795.6263 591.88009 Z "/>
</clipPath>
<g clip-path="url(#cp13)">
<path transform="matrix(1,0,0,1,640.52169,26.431519)" stroke-width="2" stroke-linecap="butt" stroke-miterlimit="4" stroke-linejoin="miter" fill="none" stroke="#000000" d="M 0 0 L 78.05803 0 L 79.05803 0 "/>
<path transform="matrix(0,-1.6,1.6,0,719.8597,31.231507)" stroke-width="1.25" stroke-linecap="butt" stroke-miterlimit="10" stroke-linejoin="miter" fill="none" stroke="#000000" d="M 0 0 L 6 0 "/>
</g>
<g id="Layer-1" data-name="P">
</g>
<clipPath id="cp14">
<path transform="matrix(1,0,0,-1,-156.1046,612.5116)" d="M 888.9553 542.5106 L 900.5553 542.5106 L 900.5553 574.0203 L 888.9553 574.0203 Z "/>
</clipPath>
<g clip-path="url(#cp14)">
<path transform="matrix(0,-1,1,0,738.6507,69.00098)" stroke-width="2" stroke-linecap="butt" stroke-miterlimit="4" stroke-linejoin="miter" fill="none" stroke="#000000" d="M 0 0 L 22.30966 0 L 23.30966 0 "/>
<path transform="matrix(1,0,0,-1,-156.1046,612.5116)" d="M 899.5553 563.4203 L 894.7553 573.0203 L 889.9553 563.4203 L 894.7553 565.8203 Z "/>
</g>
<g id="Layer-1" data-name="P">
</g>
<clipPath id="cp15">
<path transform="matrix(1,0,0,-1,-156.1046,612.5116)" d="M 662.9153 540.5106 L 896.75527 540.5106 L 896.75527 544.5106 L 662.9153 544.5106 Z "/>
</clipPath>
<g clip-path="url(#cp15)">
<path transform="matrix(1,0,0,1,507.81068,70.00098)" stroke-width="2" stroke-linecap="butt" stroke-miterlimit="4" stroke-linejoin="miter" fill="none" stroke="#000000" d="M 0 0 L 231.84 0 "/>
</g>
<g id="Layer-1" data-name="P">
</g>
<clipPath id="cp16">
<path transform="matrix(1,0,0,-1,-156.1046,612.5116)" d="M 661.9153 540.5106 L 665.9153 540.5106 L 665.9153 572.0203 L 661.9153 572.0203 Z "/>
</clipPath>
<g clip-path="url(#cp16)">
<path transform="matrix(0,-1,1,0,507.81068,71.00098)" stroke-width="2" stroke-linecap="butt" stroke-miterlimit="4" stroke-linejoin="miter" fill="none" stroke="#000000" d="M 0 0 L 29.50966 0 "/>
</g>
<g id="Layer-1" data-name="P">
</g>
<clipPath id="cp17">
<path transform="matrix(1,0,0,-1,-156.1046,612.5116)" d="M 0 0 L 1024 0 L 1024 768 L 0 768 Z "/>
</clipPath>
<g clip-path="url(#cp17)">
<path transform="matrix(0,1,1,0,378.3405,256.0516)" stroke-width="2" stroke-linecap="butt" stroke-miterlimit="4" stroke-linejoin="miter" fill="none" stroke="#000000" d="M 35.93018 4.355929 L 35.12764 3.759327 C 20.15582 -6.208556 -.5725033 4.775586 .01209718 23.43617 C .58389 41.68793 21.66757 51.53552 36.03093 40.25955 "/>
<path transform="matrix(-1.284059,.9545642,.9545642,1.284059,386.7157,289.3428)" stroke-width="1.25" stroke-linecap="butt" stroke-miterlimit="10" stroke-linejoin="miter" fill="none" stroke="#000000" d="M 0 0 L 6 0 "/>
</g>
<g id="Layer-1" data-name="P">
</g>
<g id="Layer-1" data-name="P">
<use xlink:href="#font_2_1" transform="matrix(24,0,0,-24,252.43251,313.0277)"/>
</g>
<g id="Layer-1" data-name="P">
</g>
<g id="Layer-1" data-name="P">
<use xlink:href="#font_2_2" transform="matrix(24,0,0,-24,395.35249,312.8597)"/>
</g>
<g id="Layer-1" data-name="P">
</g>
<g id="Layer-1" data-name="P">
<use xlink:href="#font_2_3" transform="matrix(24,0,0,-24,537.4325,312.8597)"/>
</g>
<g id="Layer-1" data-name="P">
<path transform="matrix(1,0,0,1,276.87159,307.9918)" stroke-width="2" stroke-linecap="butt" stroke-miterlimit="4" stroke-linejoin="miter" fill="none" stroke="#000000" d="M 0 0 L 98.64004 0 L 99.64004 0 "/>
<path transform="matrix(1,0,0,-1,-156.1046,612.5116)" d="M 529.2162 299.7198 L 538.8162 304.5198 L 529.2162 309.3198 L 531.6162 304.5198 Z "/>
</g>
<g id="Layer-1" data-name="P">
<path transform="matrix(1,0,0,1,421.2895,307.9918)" stroke-width="2" stroke-linecap="butt" stroke-miterlimit="4" stroke-linejoin="miter" fill="none" stroke="#000000" d="M 0 0 L 108.931 0 L 109.931 0 "/>
<path transform="matrix(0,-1.6,1.6,0,531.5006,312.7918)" stroke-width="1.25" stroke-linecap="butt" stroke-miterlimit="10" stroke-linejoin="miter" fill="none" stroke="#000000" d="M 0 0 L 6 0 "/>
</g>
<g id="Layer-1" data-name="P">
<path transform="matrix(0,-1,1,0,544.08059,352.5613)" stroke-width="2" stroke-linecap="butt" stroke-miterlimit="4" stroke-linejoin="miter" fill="none" stroke="#000000" d="M 0 0 L 22.30966 0 L 23.30966 0 "/>
<path transform="matrix(1,0,0,-1,-156.1046,612.5116)" d="M 704.9852 279.86 L 700.1852 289.46 L 695.3852 279.86 L 700.1852 282.26 Z "/>
</g>
<g id="Layer-1" data-name="P">
<path transform="matrix(1,0,0,1,260.0805,351.5613)" stroke-width="2" stroke-linecap="butt" stroke-miterlimit="4" stroke-linejoin="miter" fill="none" stroke="#000000" d="M 0 0 L 283.84 0 "/>
</g>
<g id="Layer-1" data-name="P">
<path transform="matrix(0,-1,1,0,260.08064,352.5613)" stroke-width="2" stroke-linecap="butt" stroke-miterlimit="4" stroke-linejoin="miter" fill="none" stroke="#000000" d="M 0 0 L 29.50966 0 "/>
</g>
</g>
</g>
</svg>
