<?xml version="1.0" encoding="UTF-8" standalone="no"?>
<!DOCTYPE svg PUBLIC "-//W3C//DTD SVG 1.1//EN" "http://www.w3.org/Graphics/SVG/1.1/DTD/svg11.dtd">
<svg xmlns="http://www.w3.org/2000/svg" xmlns:xlink="http://www.w3.org/1999/xlink" version="1.1" width="206.36878pt" height="190.29154pt" viewBox="0 0 206.36878 190.29154">
<g enable-background="new">
<clipPath id="cp0">
<path transform="matrix(1,0,0,-1,-360.1632,667.0723)" d="M 0 0 L 1024 0 L 1024 768 L 0 768 Z "/>
</clipPath>
<g clip-path="url(#cp0)">
<path transform="matrix(1,0,0,-1,-360.1632,667.0723)" d="M 0 0 L 1024 0 L 1024 768 L 0 768 Z " fill="#ffffff"/>
<g id="Layer-1" data-name="P">
</g>
<g id="Layer-1" data-name="P">
<symbol id="font_1_1">
<path d="M .521 .57100006 C .51166668 .5770001 .501 .58366677 .48900006 .591 C .47700004 .59900006 .46300004 .6063334 .447 .61300006 C .4316667 .6196667 .41433335 .62500008 .395 .62900009 C .37633337 .6336667 .35566668 .63600006 .33300004 .63600006 C .29833339 .63600006 .26533336 .62966677 .23400003 .61700007 C .20333334 .6043334 .176 .5856667 .15200001 .56100007 C .12866669 .537 .110000018 .50733336 .096000019 .47200004 C .08266667 .4366667 .076000008 .39633338 .076000008 .35100005 C .076000008 .3116667 .08200001 .275 .09400001 .24100001 C .106000009 .207 .123333338 .17733334 .14600002 .15200001 C .16866668 .12666668 .19600003 .10666668 .22800002 .09200001 C .26000003 .07733334 .2956667 .07000001 .335 .07000001 C .37633337 .07000001 .41300003 .07700001 .44500003 .091000009 C .477 .105666678 .50666669 .12166667 .534 .139 L .557 .07700001 C .53033336 .05566667 .49733339 .037333337 .45800004 .022 C .4186667 .007333333 .377 0 .33300004 0 C .2836667 0 .23866667 .008666667 .19800002 .026 C .15733335 .044 .12233335 .068666677 .09300001 .10000001 C .06366667 .13133334 .04066667 .168 .024 .21000001 C .008 .252 0 .2976667 0 .34700004 C 0 .4036667 .009 .45400004 .026999999 .49800004 C .04566667 .54266676 .07033334 .5803334 .10100001 .61100009 C .13166668 .6416667 .16700001 .665 .20700002 .68100008 C .24766667 .6976667 .29033337 .70600005 .335 .70600005 C .3576667 .70600005 .37933336 .7036667 .40000005 .69900009 C .4206667 .695 .43966673 .6896667 .45700006 .683 C .47500006 .67633339 .49133338 .66899999 .506 .661 C .52066668 .65300008 .5336667 .64500007 .545 .637 L .521 .57100006 Z "/>
</symbol>
<use xlink:href="#font_1_1" transform="matrix(24,0,0,-24,81.099,59.344839)"/>
</g>
<g id="Layer-1" data-name="P">
</g>
<g id="Layer-1" data-name="P">
<symbol id="font_1_3">
<path d="M .33400003 .38700003 C .35933338 .4096667 .38366667 .42733336 .40700004 .44000004 C .43100003 .45333336 .45800004 .46 .48800005 .46 C .504 .46 .52000007 .45700003 .536 .45100004 C .552 .4456667 .566 .43700005 .578 .425 C .5906667 .4136667 .6006667 .39900003 .60800006 .381 C .61600008 .363 .62000009 .34133337 .62000009 .316 L .62000009 0 L .55 0 L .55 .30100004 C .55 .33500005 .5416667 .35933338 .52500006 .374 C .5083334 .38866673 .489 .39600004 .467 .39600004 C .443 .39600004 .42033337 .38966669 .39900003 .377 C .37833337 .36433337 .36033336 .35033334 .34500004 .335 L .34500004 0 L .275 0 L .275 .30600003 C .275 .32333336 .272 .33766667 .26600004 .349 C .2606667 .36100004 .25366668 .37033335 .245 .377 C .237 .38433335 .22766668 .38933335 .21700001 .39200003 C .20700002 .39466668 .19700003 .39600004 .187 .39600004 C .16566667 .39600004 .14433334 .39000003 .123 .37800003 C .10233334 .3666667 .08466667 .35200004 .07 .33400003 L .07 0 L 0 0 L 0 .448 L .059 .448 L .06600001 .39200003 L .07 .39200003 C .087333347 .4106667 .108 .4266667 .132 .44000004 C .15666667 .45333336 .18300002 .46 .21100003 .46 C .23500002 .46 .25766669 .4536667 .279 .441 C .30033336 .42900003 .3166667 .411 .328 .38700003 L .33400003 .38700003 Z "/>
</symbol>
<use xlink:href="#font_1_3" transform="matrix(24,0,0,-24,80.18698,184.88043)"/>
</g>
<g id="Layer-1" data-name="P">
<path transform="matrix(1,0,0,1,61.8873,63.622255)" stroke-width="2" stroke-linecap="butt" stroke-miterlimit="4" stroke-linejoin="miter" fill="none" stroke="#000000" d="M 16.00784 98.92509 L 15.443 98.09989 C -5.683484 65.32617 -5.133466 32.62656 17.09232 0 "/>
<path transform="matrix(1,0,0,-1,-360.1632,667.0723)" d="M 432.1769 504.6194 L 441.5603 499.4088 L 440.0988 510.0419 L 437.4935 505.3502 Z "/>
</g>
<g id="Layer-1" data-name="P">
<path transform="matrix(1,0,0,1,96.12698,64.2088)" stroke-width="2" stroke-linecap="butt" stroke-miterlimit="4" stroke-linejoin="miter" fill="none" stroke="#000000" d="M .8574414 102.835 L 1.436794 102.0199 C 25.20275 67.93352 25.52939 33.92726 2.417542 0 "/>
<path transform="matrix(1.304124,.9269637,-.9269637,1.304124,92.90988,164.49112)" stroke-width="1.25" stroke-linecap="butt" stroke-miterlimit="10" stroke-linejoin="miter" fill="none" stroke="#000000" d="M 0 0 L 6 0 "/>
</g>
<g id="Layer-1" data-name="P">
<path transform="matrix(.7127732,.7013946,-.7013946,.7127732,67.93829,1.6542969)" stroke-width="2" stroke-linecap="butt" stroke-miterlimit="4" stroke-linejoin="miter" fill="none" stroke="#000000" d="M 40.69078 9.592177 C 27.54786 -9.163427 -1.944385 1.613186 .101207 24.42381 C 1.905356 44.54207 26.27069 51.0912 38.51637 37.925 L 39.0737 37.09307 "/>
<path transform="matrix(1,0,0,-1,-360.1632,667.0723)" d="M 427.5739 606.1856 L 436.0078 612.824 L 425.6367 615.5881 L 428.9559 611.3712 Z "/>
</g>
<g id="Layer-1" data-name="P">
<path transform="matrix(1,0,0,1,101.12698,52.239748)" stroke-width="2" stroke-linecap="butt" stroke-miterlimit="4" stroke-linejoin="miter" fill="none" stroke="#000000" d="M 0 0 L 65.30996 0 L 66.30996 0 "/>
<path transform="matrix(1,0,0,-1,-360.1632,667.0723)" d="M 524.2002 610.0326 L 533.8002 614.8326 L 524.2002 619.6326 L 526.6002 614.8326 Z "/>
</g>
<g id="Layer-1" data-name="P">
</g>
<clipPath id="cp2">
<path transform="matrix(1,0,0,-1,-360.1632,667.0723)" d="M 542.3713 603.9326 L 564.17129 603.9326 L 564.17129 625.7326 L 542.3713 625.7326 Z "/>
</clipPath>
<g clip-path="url(#cp2)">
<path transform="matrix(1,0,0,1,184.20807,43.33972)" stroke-width="2" stroke-linecap="butt" stroke-miterlimit="4" stroke-linejoin="miter" fill="none" stroke="#000000" d="M 15.19325 2.60675 C 18.66892 6.082417 18.66892 11.71759 15.19325 15.19325 C 11.71759 18.66892 6.082417 18.66892 2.60675 15.19325 C -.8689168 11.71759 -.8689168 6.082417 2.60675 2.60675 C 6.082417 -.8689168 11.71759 -.8689168 15.19325 2.60675 Z M 15.19325 2.60675 "/>
</g>
<g id="Layer-1" data-name="P">
</g>
<clipPath id="cp3">
<path transform="matrix(1,0,0,-1,-360.1632,667.0723)" d="M 541.957 605.4272 L 562.357 625.8272 L 565.1854 622.9988 L 544.7854 602.5988 Z "/>
</clipPath>
<g clip-path="url(#cp3)">
<clipPath id="cp4">
<path transform="matrix(1,0,0,-1,-360.1632,667.0723)" d="M 0 0 L 1024 0 L 1024 768 L 0 768 Z "/>
</clipPath>
<g clip-path="url(#cp4)">
<path transform="matrix(.7071068,-.7071068,.7071068,.7071068,183.9151,62.352235)" stroke-width="2" stroke-linecap="butt" stroke-miterlimit="4" stroke-linejoin="miter" fill="none" stroke="#000000" d="M 0 0 L 26.84996 0 "/>
</g>
<g id="Layer-1" data-name="P">
</g>
</g>
<clipPath id="cp5">
<path transform="matrix(1,0,0,-1,-360.1632,667.0723)" d="M 542.3713 480.2062 L 564.17129 480.2062 L 564.17129 502.0062 L 542.3713 502.0062 Z "/>
</clipPath>
<g clip-path="url(#cp5)">
<path transform="matrix(1,0,0,1,184.20807,167.06613)" stroke-width="2" stroke-linecap="butt" stroke-miterlimit="4" stroke-linejoin="miter" fill="none" stroke="#000000" d="M 15.19325 2.60675 C 18.66892 6.082417 18.66892 11.71759 15.19325 15.19325 C 11.71759 18.66892 6.082417 18.66892 2.60675 15.19325 C -.8689168 11.71759 -.8689168 6.082417 2.60675 2.60675 C 6.082417 -.8689168 11.71759 -.8689168 15.19325 2.60675 Z M 15.19325 2.60675 "/>
</g>
<g id="Layer-1" data-name="P">
</g>
<clipPath id="cp6">
<path transform="matrix(1,0,0,-1,-360.1632,667.0723)" d="M 541.957 481.7009 L 562.357 502.1009 L 565.1854 499.2724 L 544.7854 478.8724 Z "/>
</clipPath>
<g clip-path="url(#cp6)">
<clipPath id="cp7">
<path transform="matrix(1,0,0,-1,-360.1632,667.0723)" d="M 0 0 L 1024 0 L 1024 768 L 0 768 Z "/>
</clipPath>
<g clip-path="url(#cp7)">
<path transform="matrix(.7071068,-.7071068,.7071068,.7071068,183.9151,186.07852)" stroke-width="2" stroke-linecap="butt" stroke-miterlimit="4" stroke-linejoin="miter" fill="none" stroke="#000000" d="M 0 0 L 26.84996 0 "/>
</g>
<g id="Layer-1" data-name="P">
</g>
</g>
<clipPath id="cp8">
<path transform="matrix(1,0,0,-1,-360.1632,667.0723)" d="M 0 0 L 1024 0 L 1024 768 L 0 768 Z "/>
</clipPath>
<g clip-path="url(#cp8)">
<path transform="matrix(1,0,0,1,101.12698,179.04862)" stroke-width="2" stroke-linecap="butt" stroke-miterlimit="4" stroke-linejoin="miter" fill="none" stroke="#000000" d="M 0 0 L 65.30995 0 L 66.30995 0 "/>
<path transform="matrix(1,0,0,-1,-360.1632,667.0723)" d="M 524.2002 483.2237 L 533.8002 488.0237 L 524.2002 492.8237 L 526.6002 488.0237 Z "/>
</g>
<g id="Layer-1" data-name="P">
</g>
<g id="Layer-1" data-name="P">
<symbol id="font_9_1">
<path d="M .15400002 .7260001 C .16800003 .79200008 .19700001 .8406668 .24100001 .8720001 C .285 .9040001 .33933334 .9200001 .404 .9200001 C .43400003 .9200001 .46066667 .91600009 .484 .908 C .508 .9006667 .5273334 .8893334 .54200008 .8740001 C .5573334 .85933336 .5676667 .841 .5730001 .819 C .5783334 .7976667 .578 .77266678 .572 .7440001 C .5646667 .708 .54800006 .67600008 .5220001 .648 C .49666668 .62000009 .465 .60200008 .42700003 .59400007 L .42700003 .592 C .45033337 .59000006 .47000004 .5833334 .48600004 .572 C .5026667 .56133338 .51533338 .5473333 .52400007 .53000006 C .53333339 .5133333 .53900006 .49433337 .54100009 .47300003 C .54300007 .45166669 .5413334 .42966668 .5360001 .407 C .52866676 .37033335 .5163334 .33800004 .49900005 .31 C .48166669 .282 .461 .25866667 .437 .24000001 C .41300003 .22133334 .386 .20700002 .356 .19700001 C .326 .18766667 .294 .18300002 .26 .18300002 C .23400001 .18300002 .21200001 .18566668 .19400002 .19100002 C .17600002 .19633335 .16133334 .20300001 .15 .21100001 C .13866668 .21966668 .12900001 .22933334 .121 .24000001 C .11900001 .24266668 .117333348 .24533336 .116000007 .24800003 L .063 0 L 0 0 L .15400002 .7260001 M .17500001 .26700003 C .19833334 .24633336 .23033333 .23600002 .271 .23600002 C .29233334 .23600002 .31366668 .2386667 .335 .24400002 C .35633336 .25000004 .37600003 .25933335 .39400003 .272 C .41200004 .28533338 .42766667 .30200003 .441 .32200004 C .455 .342 .465 .3666667 .47100003 .39600004 C .47833336 .4306667 .47800002 .45866669 .47 .48000003 C .46266667 .50133338 .4496667 .5176667 .43100003 .52900007 C .41300003 .54100009 .3906667 .549 .364 .55300006 C .33733333 .557 .30866669 .559 .278 .559 L .289 .61200007 C .311 .61200007 .33366666 .614 .357 .61800006 C .381 .62200006 .40333335 .6286667 .42400003 .638 C .4446667 .648 .46233336 .6613333 .477 .67800006 C .49233339 .6946667 .5030001 .7160001 .50900009 .742 C .517 .78000006 .51066669 .81033346 .49000005 .83300009 C .47000004 .8556668 .438 .8670001 .39400003 .8670001 C .34 .8670001 .29933334 .8546667 .272 .83000007 C .2446667 .80533346 .22600003 .76900008 .21600002 .7210001 L .13200002 .32500003 C .14400001 .3016667 .15833335 .28233335 .17500001 .26700003 Z "/>
</symbol>
<use xlink:href="#font_9_1" transform="matrix(18,0,0,-18,8.743789,19.931347)"/>
<symbol id="font_1_4">
<path d="M .22500003 0 C .19500001 .023999999 .16633334 .051666667 .139 .083 C .11166666 .113666679 .08766666 .14766668 .066999997 .185 C .047000003 .223 .030666667 .26400004 .018 .30800004 C .0059999998 .352 0 .39900003 0 .449 C 0 .501 .0056666659 .55 .016999998 .596 C .028333335 .64266666 .044 .68566676 .064 .725 C .084 .7643334 .10766667 .7996667 .13499999 .83100005 C .16233333 .86233338 .19233334 .8893333 .22500003 .912 L .26000003 .86700007 C .23266669 .8463333 .20766668 .82133337 .185 .792 C .163 .7633333 .14400001 .7313333 .12799999 .69600006 C .11200001 .6613333 .09966668 .624 .091 .584 C .082333337 .54399999 .078 .50266668 .078 .46000005 C .078 .41466669 .082333337 .372 .091 .33200003 C .10033333 .29266668 .113 .25566668 .12900001 .221 C .145 .18633335 .164 .15466666 .18600002 .126 C .20866668 .096666667 .23333335 .070333328 .26000003 .04699999 L .22500003 0 Z "/>
</symbol>
<use xlink:href="#font_1_4" transform="matrix(18,0,0,-18,19.36379,19.679348)"/>
<symbol id="font_a_3">
<path d="M .402 .39200003 C .432 .41466669 .4596667 .43233336 .485 .44500003 C .511 .45833335 .539 .465 .569 .465 C .585 .465 .60033336 .462 .615 .45600004 C .63033339 .45066668 .643 .442 .653 .43 C .66366669 .4186667 .671 .404 .675 .386 C .6796667 .368 .6796667 .34633336 .675 .321 L .632 .076000008 L .63 .010000001 L .55 0 L .603 .30600003 C .60833337 .34000004 .60400006 .36433337 .59 .379 C .576 .39366666 .558 .40100003 .536 .40100003 C .512 .40100003 .48833335 .39466668 .46500004 .382 C .4416667 .36933337 .42133335 .35533334 .404 .34 L .35900004 .08400001 L .35500003 .0050000005 L .275 0 L .328 .31100003 C .3306667 .32833336 .33033336 .34266667 .32700003 .354 C .3236667 .36600004 .31833337 .37533335 .31100003 .382 C .30366669 .38933335 .29500003 .39433337 .28500004 .397 C .27566669 .3996667 .26600004 .40100003 .256 .40100003 C .23466666 .40100003 .21233334 .395 .18900001 .38300003 C .16633334 .37166668 .14600002 .35700003 .128 .33900003 L .08400001 .083000008 L .080000009 .0050000005 L 0 0 L .064 .36900003 L .068 .448 L .13700001 .458 L .135 .397 L .13900002 .397 C .15966667 .41700004 .18333334 .43333338 .21000001 .446 C .23666668 .45866669 .26400004 .465 .29200004 .465 C .316 .465 .33733336 .45866669 .356 .446 C .37533335 .43400003 .38866673 .416 .39600004 .39200003 L .402 .39200003 Z "/>
</symbol>
<use xlink:href="#font_a_3" transform="matrix(18,0,0,-18,24.61979,16.583348)"/>
<symbol id="font_1_5">
<path d="M 0 .04699999 C .026666671 .070333328 .05100001 .096666667 .07300001 .126 C .09566667 .15466666 .115 .18633335 .131 .221 C .147 .25566668 .15933334 .29266668 .168 .33200003 C .17733334 .372 .182 .41466669 .18200001 .46000005 C .182 .50266668 .17766667 .54399999 .169 .584 C .16033334 .624 .148 .6613333 .132 .69600006 C .116 .7313333 .09666667 .7633333 .07400001 .792 C .052000006 .82133337 .027333335 .8463333 0 .86700007 L .035000005 .912 C .06766667 .8893333 .09766667 .86233338 .125 .83100005 C .15233334 .7996667 .176 .7643334 .19600001 .725 C .216 .68566676 .23166669 .64266666 .243 .596 C .25433336 .55 .26000003 .501 .26000003 .449 C .26000003 .39900003 .25366668 .352 .241 .30800004 C .22900002 .26400004 .21266668 .223 .192 .185 C .172 .14766668 .14833334 .113666679 .121000017 .083 C .09366667 .051666667 .065000008 .023999999 .035000005 0 L 0 .04699999 Z "/>
</symbol>
<use xlink:href="#font_1_5" transform="matrix(18,0,0,-18,38.44379,19.679348)"/>
</g>
<g id="Layer-1" data-name="P">
</g>
<g id="Layer-1" data-name="P">
<use xlink:href="#font_9_1" transform="matrix(18,0,0,-18,41.548784,119.40755)"/>
<symbol id="font_a_5">
<path d="M .034 0 L .141 .61800006 L 0 .602 L .011 .66800007 L .21000001 .693 L .225 .68100008 L .123 .10400001 L .116000007 .010000001 L .034 0 Z "/>
</symbol>
<use xlink:href="#font_a_5" transform="matrix(12,0,0,-12,52.486783,117.577518)"/>
</g>
<g id="Layer-1" data-name="P">
</g>
<g id="Layer-1" data-name="P">
<symbol id="font_a_2">
<path d="M .16300002 .499 L .087000008 .081 L .085 .009999998 L .004999999 0 L .094000007 .505 L 0 .50400009 L .008000001 .549 L .10500001 .564 L .11200001 .60400006 C .120666678 .652 .13833334 .692 .16500002 .724 C .19166668 .75600007 .22633334 .7796667 .269 .7950001 L .349 .7950001 L .349 .7570001 C .29766668 .7503333 .25800003 .7326667 .22999999 .704 C .20200002 .6753333 .18466668 .64000007 .178 .59800007 L .17200002 .56000009 L .279 .561 L .27 .50900009 L .16300002 .499 Z "/>
</symbol>
<use xlink:href="#font_a_2" transform="matrix(18,0,0,-18,117.986789,117.49951)"/>
<use xlink:href="#font_1_4" transform="matrix(18,0,0,-18,124.30479,118.65151)"/>
<use xlink:href="#font_a_3" transform="matrix(18,0,0,-18,129.56079,115.55551)"/>
<use xlink:href="#font_1_5" transform="matrix(18,0,0,-18,143.38478,118.65151)"/>
</g>
<g id="Layer-1" data-name="P">
</g>
<g id="Layer-1" data-name="P">
<symbol id="font_9_2">
<path d="M .45400004 .707 C .4313334 .6476667 .40633337 .592 .379 .54 C .3516667 .48866669 .3236667 .441 .29500003 .397 C .26633335 .35300002 .23766668 .31266669 .20900002 .27600003 C .181 .24000001 .15433334 .20766668 .12900001 .17900002 L .091000009 0 L .027999998 0 L .056999998 .13900002 C .068333338 .19233334 .07433333 .24566669 .075 .29900003 C .07566667 .35300002 .072333339 .4046667 .065 .45400004 C .058333339 .50333335 .049000008 .54933336 .037 .592 C .025666664 .63533338 .013333331 .6736667 0 .707 L .074 .707 C .08533334 .6816667 .09566667 .651 .105000007 .615 C .11433333 .579 .122 .541 .128 .50100007 C .13466668 .46100006 .13866668 .421 .14000002 .38100005 C .142 .34100006 .14133334 .3046667 .13800001 .272 L .143 .272 C .165 .2986667 .18633335 .32700003 .20700002 .35700003 C .22833336 .387 .24933334 .41966669 .27 .455 C .2906667 .49033336 .31066669 .5286667 .33 .57000008 C .35000003 .61200007 .37 .6576667 .39000003 .707 L .45400004 .707 Z "/>
</symbol>
<use xlink:href="#font_9_2" transform="matrix(18,0,0,-18,122.83807,173.84273)"/>
<use xlink:href="#font_1_3" transform="matrix(12,0,0,-12,129.91808,171.9527)"/>
<use xlink:href="#font_1_4" transform="matrix(18,0,0,-18,139.30808,173.59073)"/>
<use xlink:href="#font_a_3" transform="matrix(18,0,0,-18,144.56409,170.49472)"/>
<use xlink:href="#font_1_5" transform="matrix(18,0,0,-18,158.38808,173.59073)"/>
</g>
<g id="Layer-1" data-name="P">
</g>
<g id="Layer-1" data-name="P">
<use xlink:href="#font_9_2" transform="matrix(18,0,0,-18,115.7218,47.640027)"/>
<symbol id="font_1_2">
<path d="M .31200005 .37 C .2966667 .38333337 .28033338 .39400003 .263 .402 C .24633336 .41 .22766668 .414 .207 .414 C .18766667 .414 .16966667 .40933336 .15300001 .4 C .13700001 .3906667 .123 .37766669 .111 .361 C .09900001 .34433333 .08933333 .32433335 .082 .301 C .075333338 .27766667 .072000008 .252 .072000008 .224 C .072000008 .168 .08433334 .126 .10900001 .098000008 C .13433333 .07066667 .165 .057 .201 .057000005 C .22433335 .057 .245 .06133334 .263 .07 C .28100003 .078666668 .29700003 .08866668 .311 .10000001 L .33100004 .048 C .3156667 .03466667 .29600004 .023333334 .272 .014 C .24800003 .004666667 .22333336 0 .19800002 0 C .16733335 0 .13966668 .0053333339 .11500001 .016 C .09033334 .027333335 .06933334 .043 .052 .063 C .035333337 .083000008 .022333334 .10633334 .013 .133 C .0043333338 .16033334 0 .19 0 .222 C 0 .258 .005333334 .29133333 .016000003 .322 C .027333335 .35266666 .042333336 .37900005 .061000006 .40100003 C .07966667 .423 .10133334 .44033338 .126 .453 C .15066667 .46566669 .17633336 .472 .20300001 .472 C .23366666 .472 .25866667 .46766667 .278 .45900003 C .298 .451 .31800003 .43933336 .338 .42400003 L .31200005 .37 Z "/>
</symbol>
<use xlink:href="#font_1_2" transform="matrix(12,0,0,-12,122.561809,45.894)"/>
<use xlink:href="#font_1_4" transform="matrix(18,0,0,-18,127.991809,47.388029)"/>
<use xlink:href="#font_a_3" transform="matrix(18,0,0,-18,133.24782,44.292028)"/>
<use xlink:href="#font_1_5" transform="matrix(18,0,0,-18,147.0718,47.388029)"/>
</g>
<g id="Layer-1" data-name="P">
<path transform="matrix(1,0,0,1,1.6076965,179.01892)" stroke-width="2" stroke-linecap="butt" stroke-miterlimit="4" stroke-linejoin="miter" fill="none" stroke="#000000" d="M 0 0 L 65.30995 0 L 66.30995 0 "/>
<path transform="matrix(1,0,0,-1,-360.1632,667.0723)" d="M 424.6808 483.2534 L 434.2808 488.0534 L 424.6808 492.8534 L 427.0808 488.0534 Z "/>
</g>
<g id="Layer-1" data-name="P">
<path transform="matrix(1,0,0,1,15.672485,52.925416)" stroke-width="2" stroke-linecap="butt" stroke-miterlimit="4" stroke-linejoin="miter" fill="none" stroke="#000000" d="M 58.95104 119.3347 C -5.943997 79.47391 -17.26026 41.22 25.00225 4.572998 L 25.77545 3.937339 "/>
<path transform="matrix(1,0,0,-1,-360.1632,667.0723)" d="M 402.0331 604.3425 L 406.4005 614.1469 L 395.9365 611.7582 L 400.8387 609.5745 Z "/>
</g>
<g id="Layer-1" data-name="P">
</g>
<g id="Layer-1" data-name="P">
<symbol id="font_a_1">
<path d="M .134 .352 L .09600001 .11200001 L .08800001 .010000001 L 0 0 L .065000008 .34600003 L .10300001 .588 L .109000008 .68 L .197 .69000008 L .134 .352 Z "/>
</symbol>
<use xlink:href="#font_a_1" transform="matrix(18,0,0,-18,7.7152035,170.24274)"/>
<symbol id="font_a_4">
<path d="M .5170001 .45600004 C .5170001 .39333336 .50900009 .33433334 .493 .279 C .47766666 .22366667 .456 .17533334 .428 .134 C .4 .09266666 .36666668 .060000004 .328 .036000004 C .29 .012000001 .24800001 0 .202 0 C .17266667 0 .14566668 .0050000005 .12100001 .015000001 C .09633335 .025666669 .075 .041333338 .057 .062000004 C .039000006 .083333339 .025000005 .10933334 .015000001 .14 C .0050000005 .17066668 0 .20666667 0 .24800001 C 0 .32200004 .009 .38733337 .026999999 .44400005 C .04566667 .50133338 .069666679 .5493334 .09900001 .58800008 C .12900001 .6266667 .16233334 .6560001 .199 .67600008 C .23633333 .69600006 .27400003 .70600005 .312 .70600005 C .3746667 .70600005 .42433334 .6846667 .461 .642 C .49833337 .59933337 .5170001 .5373333 .5170001 .45600004 M .44200004 .45300005 C .44200004 .5116667 .43000005 .55733337 .40600003 .59000006 C .38266669 .6233334 .34933339 .64000007 .30600003 .64000007 C .28 .64000007 .25300003 .6316667 .225 .61500009 C .19766666 .59900006 .17266667 .57500007 .15 .54300007 C .128 .51100006 .10966667 .47100006 .095 .42300005 C .081 .3756667 .074 .32033337 .074 .25700004 C .074 .22366667 .07733334 .19466667 .08400001 .17 C .09133333 .14600002 .101 .126 .113000009 .11 C .12566667 .09466666 .14 .083333339 .156 .076000008 C .17266667 .06866667 .19066668 .065 .21000001 .065 C .2446667 .065 .27633337 .076 .305 .098000008 C .33366669 .12066666 .35800005 .15033333 .37800003 .187 C .3986667 .22366667 .41433335 .26500003 .425 .31100003 C .43633334 .3576667 .44200004 .40500007 .44200004 .45300005 Z "/>
</symbol>
<use xlink:href="#font_a_4" transform="matrix(12,0,0,-12,12.305204,171.85672)"/>
</g>
<g id="Layer-1" data-name="P">
<path transform="matrix(1,0,0,1,102.39908,56.645509)" stroke-width="2" stroke-linecap="butt" stroke-miterlimit="4" stroke-linejoin="miter" fill="none" stroke="#000000" d="M 0 118.129 C 58.72954 82.62824 74.55708 45.18248 47.48263 5.791771 L 46.88783 4.986682 "/>
<path transform="matrix(1,0,0,-1,-360.1632,667.0723)" d="M 515.3311 605.5577 L 505.766 610.4268 L 507.6098 599.8532 L 510.0443 604.6358 Z "/>
</g>
</g>
</g>
</svg>
