<?xml version="1.0" encoding="UTF-8" standalone="no"?>
<!DOCTYPE svg PUBLIC "-//W3C//DTD SVG 1.1//EN" "http://www.w3.org/Graphics/SVG/1.1/DTD/svg11.dtd">
<svg xmlns="http://www.w3.org/2000/svg" xmlns:xlink="http://www.w3.org/1999/xlink" version="1.1" width="676.60537pt" height="137.11042pt" viewBox="0 0 676.60537 137.11042">
<g enable-background="new">
<clipPath id="cp0">
<path transform="matrix(1,0,0,-1,-163.1348,493.1398)" d="M 0 0 L 1024 0 L 1024 768 L 0 768 Z "/>
</clipPath>
<g clip-path="url(#cp0)">
<path transform="matrix(1,0,0,-1,-163.1348,493.1398)" d="M 0 0 L 1024 0 L 1024 768 L 0 768 Z " fill="#ffffff"/>
<g id="Layer-1" data-name="P">
</g>
<g id="Layer-1" data-name="P">
</g>
<clipPath id="cp1">
<path transform="matrix(1,0,0,-1,-163.1348,493.1398)" d="M 624.0983 458.5503 L 655.4822 458.5503 L 655.4822 502.09419 L 624.0983 502.09419 Z "/>
</clipPath>
<g clip-path="url(#cp1)">
<symbol id="font_2_1">
<path d="M .521 .57100006 C .51166668 .5770001 .501 .58366677 .48900006 .591 C .47700004 .59900006 .46300004 .6063334 .447 .61300006 C .4316667 .6196667 .41433335 .62500008 .395 .62900009 C .37633337 .6336667 .35566668 .63600006 .33300004 .63600006 C .29833339 .63600006 .26533336 .62966677 .23400003 .61700007 C .20333334 .6043334 .176 .5856667 .15200001 .56100007 C .12866669 .537 .110000018 .50733336 .096000019 .47200004 C .08266667 .4366667 .076000008 .39633338 .076000008 .35100005 C .076000008 .3116667 .08200001 .275 .09400001 .24100001 C .106000009 .207 .123333338 .17733334 .14600002 .15200001 C .16866668 .12666668 .19600003 .10666668 .22800002 .09200001 C .26000003 .07733334 .2956667 .07000001 .335 .07000001 C .37633337 .07000001 .41300003 .07700001 .44500003 .091000009 C .477 .105666678 .50666669 .12166667 .534 .139 L .557 .07700001 C .53033336 .05566667 .49733339 .037333337 .45800004 .022 C .4186667 .007333333 .377 0 .33300004 0 C .2836667 0 .23866667 .008666667 .19800002 .026 C .15733335 .044 .12233335 .068666677 .09300001 .10000001 C .06366667 .13133334 .04066667 .168 .024 .21000001 C .008 .252 0 .2976667 0 .34700004 C 0 .4036667 .009 .45400004 .026999999 .49800004 C .04566667 .54266676 .07033334 .5803334 .10100001 .61100009 C .13166668 .6416667 .16700001 .665 .20700002 .68100008 C .24766667 .6976667 .29033337 .70600005 .335 .70600005 C .3576667 .70600005 .37933336 .7036667 .40000005 .69900009 C .4206667 .695 .43966673 .6896667 .45700006 .683 C .47500006 .67633339 .49133338 .66899999 .506 .661 C .52066668 .65300008 .5336667 .64500007 .545 .637 L .521 .57100006 Z "/>
</symbol>
<use xlink:href="#font_2_1" transform="matrix(24,0,0,-24,470.12739,21.437703)"/>
</g>
<g id="Layer-1" data-name="P">
</g>
<clipPath id="cp3">
<path transform="matrix(1,0,0,-1,-163.1348,493.1398)" d="M 655.961 474.5222 L 716.61947 474.5222 L 716.61947 486.1222 L 655.961 486.1222 Z "/>
</clipPath>
<g clip-path="url(#cp3)">
<path transform="matrix(1,0,0,1,493.8262,12.817596)" stroke-width="2" stroke-linecap="butt" stroke-miterlimit="4" stroke-linejoin="miter" fill="none" stroke="#000000" d="M 0 0 L 51.45847 0 L 52.45847 0 "/>
<path transform="matrix(1,0,0,-1,-163.1348,493.1398)" d="M 706.0195 475.5222 L 715.6195 480.3222 L 706.0195 485.1222 L 708.4195 480.3222 Z "/>
</g>
<g id="Layer-1" data-name="P">
</g>
<g id="Layer-1" data-name="P">
</g>
<clipPath id="cp4">
<path transform="matrix(1,0,0,-1,-163.1348,493.1398)" d="M 717.9383 458.5503 L 747.64218 458.5503 L 747.64218 502.09419 L 717.9383 502.09419 Z "/>
</clipPath>
<g clip-path="url(#cp4)">
<symbol id="font_2_4">
<path d="M .234 .35000003 L .005999999 .67700007 L .08100001 .69400009 L .277 .411 L .474 .69400009 L .54800006 .67800006 L .319 .351 L .554 .013 L .479 0 L .276 .289 L .07400001 0 L 0 .013 L .234 .35000003 Z "/>
</symbol>
<use xlink:href="#font_2_4" transform="matrix(24,0,0,-24,563.00747,21.293702)"/>
</g>
<g id="Layer-1" data-name="P">
</g>
<clipPath id="cp5">
<path transform="matrix(1,0,0,-1,-163.1348,493.1398)" d="M 748.961 474.5222 L 809.61947 474.5222 L 809.61947 486.1222 L 748.961 486.1222 Z "/>
</clipPath>
<g clip-path="url(#cp5)">
<path transform="matrix(1,0,0,1,586.8262,12.817596)" stroke-width="2" stroke-linecap="butt" stroke-miterlimit="4" stroke-linejoin="miter" fill="none" stroke="#000000" d="M 0 0 L 56.17847 0 L 57.17847 0 "/>
<path transform="matrix(0,-1.6,1.6,0,644.28469,17.617615)" stroke-width="1.25" stroke-linecap="butt" stroke-miterlimit="10" stroke-linejoin="miter" fill="none" stroke="#000000" d="M 0 0 L 6 0 "/>
</g>
<g id="Layer-1" data-name="P">
</g>
<g id="Layer-1" data-name="P">
</g>
<clipPath id="cp6">
<path transform="matrix(1,0,0,-1,-163.1348,493.1398)" d="M 813.3578 458.5503 L 843.06167 458.5503 L 843.06167 502.09419 L 813.3578 502.09419 Z "/>
</clipPath>
<g clip-path="url(#cp6)">
<symbol id="font_2_5">
<path d="M .27400003 .374 L .28100003 .374 L .48300005 .68700006 L .554 .671 L .31300003 .303 L .31300003 0 L .24000001 0 L .24000001 .303 L 0 .671 L .071 .68700006 L .27400003 .374 Z "/>
</symbol>
<use xlink:href="#font_2_5" transform="matrix(24,0,0,-24,658.4269,21.125702)"/>
</g>
<g id="Layer-1" data-name="P">
</g>
<clipPath id="cp7">
<path transform="matrix(1,0,0,-1,-163.1348,493.1398)" d="M 638.7902 428.5334 L 830.7952 428.5334 L 830.7952 462.83558 L 638.7902 462.83558 Z "/>
</clipPath>
<g clip-path="url(#cp7)">
<path transform="matrix(1,0,0,1,477.67314,31.317597)" stroke-width="2" stroke-linecap="butt" stroke-miterlimit="4" stroke-linejoin="miter" fill="none" stroke="#000000" d="M .5337328 .5838401 L 0 31.28325 L 183.9105 30.28839 L 184.22 7.199357 L 184.2334 6.199443 "/>
<path transform="matrix(1,0,0,-1,-163.1348,493.1398)" d="M 829.7953 452.1587 L 825.1244 461.8222 L 820.1961 452.2874 L 825.0279 454.6229 Z "/>
</g>
<g id="Layer-1" data-name="P">
</g>
<g id="Layer-1" data-name="P">
</g>
<clipPath id="cp8">
<path transform="matrix(1,0,0,-1,-163.1348,493.1398)" d="M 159.0983 458.5503 L 190.48218 458.5503 L 190.48218 502.09419 L 159.0983 502.09419 Z "/>
</clipPath>
<g clip-path="url(#cp8)">
<use xlink:href="#font_2_1" transform="matrix(24,0,0,-24,5.1275045,21.437703)"/>
</g>
<g id="Layer-1" data-name="P">
</g>
<clipPath id="cp9">
<path transform="matrix(1,0,0,-1,-163.1348,493.1398)" d="M 195.1661 474.5222 L 344.6195 474.5222 L 344.6195 486.1222 L 195.1661 486.1222 Z "/>
</clipPath>
<g clip-path="url(#cp9)">
<path transform="matrix(1,0,0,1,33.03131,12.817596)" stroke-width="2" stroke-linecap="butt" stroke-miterlimit="4" stroke-linejoin="miter" fill="none" stroke="#000000" d="M 0 0 L 140.2534 0 L 141.2534 0 "/>
<path transform="matrix(1,0,0,-1,-163.1348,493.1398)" d="M 334.0195 475.5222 L 343.6195 480.3222 L 334.0195 485.1222 L 336.4195 480.3222 Z "/>
</g>
<g id="Layer-1" data-name="P">
</g>
<g id="Layer-1" data-name="P">
</g>
<clipPath id="cp10">
<path transform="matrix(1,0,0,-1,-163.1348,493.1398)" d="M 348.3578 458.5503 L 378.06169 458.5503 L 378.06169 502.09419 L 348.3578 502.09419 Z "/>
</clipPath>
<g clip-path="url(#cp10)">
<use xlink:href="#font_2_5" transform="matrix(24,0,0,-24,193.427,21.125702)"/>
</g>
<g id="Layer-1" data-name="P">
</g>
<g id="Layer-1" data-name="P">
</g>
<clipPath id="cp11">
<path transform="matrix(1,0,0,-1,-163.1348,493.1398)" d="M 0 0 L 1024 0 L 1024 768 L 0 768 Z "/>
</clipPath>
<g clip-path="url(#cp11)">
<symbol id="font_2_3">
<path d="M .51400008 .25500003 C .51400008 .22233336 .50900009 .19066668 .499 .16 C .4896667 .12933333 .47466669 .102000009 .45400007 .07800001 C .4333334 .05466667 .40666668 .03566667 .374 .021000002 C .342 .0070000009 .30300004 0 .25700004 0 C .20633336 0 .16433336 .0070000009 .13100001 .021000002 C .09833334 .03566667 .072 .05466667 .051999995 .07800001 C .032666666 .102000009 .019000002 .12866669 .011 .158 C .0036666666 .18800001 0 .21866668 0 .25000004 L 0 .693 L .07300001 .693 L .07300001 .26700003 C .07300001 .231 .07733334 .20033334 .086 .175 C .09466667 .15033333 .107 .13 .123 .11400001 C .13900002 .09866667 .15833335 .087333347 .18100003 .08 C .20366669 .07333334 .22900002 .07000001 .25700004 .07000001 C .28500004 .07000001 .31033338 .07333334 .33300004 .08 C .35566668 .087333347 .375 .09866667 .39100004 .11400001 C .40700004 .13 .41933338 .15033333 .42800004 .175 C .43666674 .20033334 .44100008 .231 .44100005 .26700003 L .44100005 .693 L .51400008 .693 L .51400008 .25500003 Z "/>
</symbol>
<symbol id="font_2_b">
<path d="M .069 .39400003 C .088999997 .41400004 .11166666 .43000005 .137 .44200004 C .16233334 .454 .18900001 .46 .21700001 .46 C .23566668 .46 .25300003 .45700003 .26900003 .45100004 C .2856667 .4456667 .30000005 .43700005 .312 .425 C .324 .41300003 .33333335 .3976667 .34000004 .379 C .3466667 .36033336 .35000003 .33800004 .35000003 .312 L .35000003 0 L .28000004 0 L .28000004 .291 C .28000004 .3116667 .2776667 .3286667 .27300004 .342 C .26833336 .35533334 .26200003 .36600004 .254 .374 C .246 .382 .23666668 .3876667 .22600001 .39100004 C .21533335 .39433337 .20433335 .39600004 .19300002 .39600004 C .16966667 .39600004 .147 .38966669 .125 .377 C .10300001 .365 .08466667 .349 .07 .32900004 L .07 0 L 0 0 L 0 .448 L .058 .448 L .065000008 .39400003 L .069 .39400003 Z "/>
</symbol>
<symbol id="font_2_c">
<path d="M .21100003 .45600004 C .21633335 .456 .22066669 .4556667 .224 .455 C .228 .455 .23200004 .4546667 .23600003 .45400004 L .23600003 .38200004 L .20600003 .38200004 C .19133336 .3806667 .17666668 .37600003 .162 .36800004 C .148 .36 .13466667 .349 .122 .335 C .11000001 .3216667 .09933334 .30600003 .089999999 .28800003 C .08066666 .2706667 .074 .2516667 .07 .231 L .07 0 L 0 0 L 0 .448 L .059 .448 L .065000008 .34300003 L .074999999 .34300003 C .08166667 .359 .089666668 .37366668 .099 .38700003 C .109 .40100003 .120000008 .41300003 .132 .423 C .14400001 .433 .15666668 .441 .17000002 .44700004 C .18333335 .45300005 .19700003 .456 .21100003 .45600004 Z "/>
</symbol>
<symbol id="font_2_8">
<path d="M .072000008 .21700001 C .072000008 .18766667 .075333338 .163 .082 .143 C .08933333 .123 .09900001 .10666668 .111 .094000007 C .123 .08133334 .13700001 .072333339 .15300001 .067 C .16900002 .061666669 .186 .059 .20400001 .059 C .22333336 .059 .24333334 .06333333 .264 .072000008 C .28533335 .08133334 .303 .093 .31700004 .10700001 L .32 .10700001 L .333 .049000004 C .31766669 .033666668 .29766668 .021666667 .273 .013 C .249 .0043333338 .22233333 0 .193 0 C .16766668 0 .14333333 .0043333338 .120000008 .013 C .09666667 .021666667 .076000008 .035 .058000007 .053000004 C .040666675 .071 .026666671 .094000007 .016000003 .12200001 C .005333334 .15066667 0 .18466668 0 .224 C 0 .2606667 .0050000005 .294 .015000001 .324 C .025 .35466669 .03866667 .381 .056 .40300004 C .07333333 .42500005 .094000007 .44200004 .118 .45400004 C .142 .466 .16800003 .472 .19600001 .472 C .22133334 .472 .244 .46733333 .264 .458 C .2846667 .44866667 .30200003 .43600003 .31600005 .42000003 C .33 .404 .34066669 .385 .348 .363 C .35600005 .34166668 .36 .31866668 .36 .294 C .36 .28466667 .359 .27266667 .357 .25800003 C .35566668 .244 .3526667 .23033333 .348 .21700001 L .072000008 .21700001 M .288 .269 C .29133336 .29166667 .29100005 .31166668 .287 .329 C .28300003 .347 .27633337 .36233334 .26700003 .375 C .25833337 .3876667 .24766667 .39733336 .235 .404 C .22233333 .41066668 .20866668 .414 .194 .414 C .17666668 .414 .16066669 .41 .14600002 .402 C .13200002 .39466668 .11966667 .38433335 .10900001 .37100003 C .099000018 .35833336 .09100001 .34300003 .08500001 .32500003 C .079 .30766667 .07566667 .289 .075 .269 L .288 .269 Z "/>
</symbol>
<symbol id="font_2_9">
<path d="M .193 .261 C .21233334 .261 .23266669 .266 .254 .27600003 C .276 .286 .29466669 .3026667 .31 .32600004 L .31 .55700007 C .30066667 .57100006 .28633336 .58333346 .26700003 .59400007 C .24833334 .6046667 .22866668 .61 .20800002 .61 C .18666668 .61 .16766668 .605 .15100001 .595 C .13433333 .5856667 .120000008 .5723334 .10800001 .55500009 C .09666667 .53833338 .08766667 .51800009 .081 .49400003 C .075 .47066669 .072000008 .4446667 .072000008 .416 C .072000008 .36200003 .083000008 .3226667 .105000007 .29800005 C .12766667 .27333335 .157 .261 .193 .261 M .057000005 .103000018 C .072333339 .08966669 .089999999 .07900001 .11 .07100001 C .13 .063000019 .153 .059000017 .179 .059000017 C .19500001 .059000017 .21066667 .061333348 .22600003 .066000018 C .242 .07066668 .256 .07866668 .268 .09000001 C .28066669 .10066668 .29066668 .11566669 .29800005 .13500002 C .30600003 .15366669 .31 .17733336 .31 .20600002 L .31 .25800003 L .306 .25800003 C .28733335 .23733334 .26733334 .223 .246 .21500002 C .22533335 .20700002 .20266669 .20300003 .178 .20300003 C .123333338 .20300003 .080000009 .22133334 .048 .25800003 C .016 .29533337 0 .349 0 .41900004 C 0 .45233337 .0046666676 .48400007 .014000002 .51400008 C .023333336 .544 .036666674 .57033339 .054000006 .59300008 C .071333337 .6156667 .09266666 .6336667 .118 .6470001 C .14400001 .6603334 .173 .66700008 .205 .66700008 C .22233336 .66700008 .24100001 .66333338 .26100005 .656 C .28166668 .64933338 .29966668 .6383334 .315 .623 L .32 .623 L .339 .65800008 L .38 .65400007 L .38 .20900002 C .38 .17366667 .37399999 .14300002 .362 .11700001 C .35000003 .09100001 .33433334 .069333348 .315 .052000017 C .29633335 .034666677 .275 .021666676 .251 .013000011 C .227 .0043333375 .20266669 0 .178 0 C .14400001 0 .11433333 .004666671 .089 .0140000139 C .064333338 .022666678 .044 .034333346 .028000005 .04900001 L .055 .103000018 L .057000005 .103000018 Z "/>
</symbol>
<symbol id="font_2_e">
<path d="M .279 .066 C .26233337 .047999998 .24233334 .032333334 .21900001 .019000002 C .19566667 .006333334 .16800003 0 .136 0 C .11866667 0 .10166667 .0029999999 .085 .009 C .069 .014333334 .05466667 .023000002 .042000005 .035000005 C .029333337 .04766667 .019000002 .064 .011 .08400001 C .0036666666 .10400001 0 .12866669 0 .158 L 0 .46 L .07 .46 L .07 .182 C .07 .13866668 .07766667 .108 .093 .09 C .109000008 .072000008 .13066668 .063 .15799999 .063 C .17066668 .063 .18333335 .06533334 .19600001 .07 C .20866668 .07466667 .22033334 .08066667 .231 .08800001 C .24233336 .09600001 .252 .10500001 .26000003 .11500001 C .2686667 .12566667 .27533338 .13700001 .28000004 .149 L .28000004 .46 L .35000003 .46 L .35000003 .012 L .289 .012 L .28300003 .066 L .279 .066 Z "/>
</symbol>
<symbol id="font_2_a">
<path d="M .07 .69200006 L .07 0 L 0 0 L 0 .68 L .07 .69200006 Z "/>
</symbol>
<symbol id="font_2_6">
<path d="M .36300005 .042000005 L .31400005 0 C .30333338 .007333333 .29333339 .016 .28400005 .026 C .2746667 .036000004 .26833336 .048000006 .26500003 .062000004 L .26000003 .062000004 C .24466668 .041333338 .22566666 .026 .203 .016 C .181 .0060000007 .15733333 .0010000002 .132 .0010000002 C .114 .0010000002 .097 .004 .081 .01 C .065 .016 .051 .024333336 .039 .035000005 C .027 .04633333 .017333335 .060000004 .010000002 .076000008 C .0033333339 .09200001 0 .110333349 0 .13100001 C 0 .14766668 .0029999999 .16433335 .009 .18100001 C .0150000019 .19766666 .025 .21266668 .039 .22600001 C .053000004 .23933335 .07133334 .25 .094 .25800003 C .116666678 .26666669 .14466667 .27100004 .178 .27100004 C .19000001 .27100004 .20300001 .27033339 .217 .26900003 C .231 .2676667 .24433334 .26600004 .25700004 .26400004 L .25700004 .31400005 C .25700004 .33266673 .25400005 .34833337 .24800001 .36100004 C .242 .37433339 .23433334 .38466669 .22500001 .39200003 C .21633333 .4 .20633334 .4056667 .19500001 .40900005 C .18366666 .41233338 .17266667 .41400004 .162 .41400004 C .14266667 .41400004 .123 .41000007 .103 .40200005 C .08366666 .3946667 .063666667 .38366667 .043 .36900003 L .018999998 .42400003 C .039 .43600003 .061999997 .44700004 .088 .45700006 C .11466667 .46766673 .145 .47300003 .179 .47300003 C .19700001 .47300003 .21466668 .47033335 .23200001 .46500004 C .24933334 .45966674 .26466669 .45100007 .27800004 .43900005 C .29133336 .4276667 .30200006 .41266669 .31000004 .39400003 C .3186667 .37600003 .323 .35433338 .323 .32900004 L .323 .117 C .323 .09966668 .32700003 .08466667 .33500005 .072000008 C .34300003 .060000004 .3523334 .051333336 .36300005 .046 L .36300005 .042000005 M .25700004 .21200001 C .24566667 .214 .23333334 .21566667 .22000002 .21700001 C .20666667 .21900003 .19233334 .22000002 .177 .22000002 C .14166667 .22000002 .11466666 .21200001 .096 .19600001 C .07733334 .18 .068 .15866667 .068 .132 C .068 .108 .075333338 .089666668 .09 .07700001 C .105333339 .065000008 .124000009 .059000005 .146 .059000005 C .17133333 .059000005 .19366668 .06566667 .21300002 .078999999 C .23300003 .093 .24766667 .111 .25700004 .133 L .25700004 .21200001 Z "/>
</symbol>
<symbol id="font_2_d">
<path d="M .162 .60400006 L .162 .448 L .26900003 .448 L .26900003 .39100004 L .162 .39100004 L .162 0 L .092 0 L .092 .39100004 L 0 .39100004 L 0 .43600003 L .092 .453 L .092 .58000007 L .162 .60400006 Z "/>
</symbol>
<symbol id="font_2_7">
<path d="M .30900003 .064 C .267 .021333335 .22133334 0 .172 0 C .14666666 0 .123333338 .004666667 .102 .014 C .08133333 .024000003 .06333333 .038333339 .048 .057000005 C .033333336 .07633334 .021666667 .1 .013 .128 C .0043333338 .156 0 .18800001 0 .224 C 0 .25800003 .0046666676 .29 .014000002 .32000003 C .023333336 .35066668 .036666674 .377 .054000006 .39900003 C .071333337 .4216667 .09266666 .43933336 .118 .45200003 C .14333333 .46533335 .17166667 .472 .20300001 .472 C .22566669 .472 .24566667 .46800003 .263 .46 C .28100003 .45266668 .2956667 .44333337 .30700005 .432 L .31 .432 L .31 .69200006 L .38 .70400008 L .38 .012 L .328 .012 L .31300003 .064 L .30900003 .064 M .18900001 .060000004 C .21033335 .060000004 .23133333 .06533334 .25200004 .076000008 C .27333338 .087333347 .2926667 .105 .31 .12900001 L .31 .36200003 C .29733334 .37800003 .282 .39033333 .264 .39900003 C .246 .40766669 .22733335 .41200004 .20800002 .412 C .18533336 .41200004 .16533335 .40733335 .148 .398 C .13133334 .38933335 .117333348 .377 .106000009 .361 C .09466667 .34500004 .086 .32566668 .08 .303 C .07466667 .28100003 .072000008 .2566667 .072000008 .23 C .072000008 .17333333 .083000008 .13066666 .105000007 .102000009 C .12700002 .074 .15500002 .060000004 .18900001 .060000004 Z "/>
</symbol>
<use xlink:href="#font_2_3" transform="matrix(24,0,0,-24,49.71721,125.4377)"/>
<use xlink:href="#font_2_b" transform="matrix(24,0,0,-24,65.725208,125.1257)"/>
<use xlink:href="#font_2_c" transform="matrix(24,0,0,-24,77.24521,125.1257)"/>
<use xlink:href="#font_2_8" transform="matrix(24,0,0,-24,84.205219,125.413707)"/>
<use xlink:href="#font_2_9" transform="matrix(24,0,0,-24,95.00521,130.0937)"/>
<use xlink:href="#font_2_e" transform="matrix(24,0,0,-24,107.24521,125.413707)"/>
<use xlink:href="#font_2_a" transform="matrix(24,0,0,-24,119.12521,125.1257)"/>
<use xlink:href="#font_2_6" transform="matrix(24,0,0,-24,123.85321,125.4377)"/>
<use xlink:href="#font_2_d" transform="matrix(24,0,0,-24,133.83722,125.1257)"/>
<use xlink:href="#font_2_8" transform="matrix(24,0,0,-24,141.80522,125.413707)"/>
<use xlink:href="#font_2_7" transform="matrix(24,0,0,-24,152.60523,125.413707)"/>
</g>
<g id="Layer-1" data-name="P">
</g>
<g id="Layer-1" data-name="P">
<symbol id="font_2_2">
<path d="M .39800004 .504 C .39800004 .454 .3826667 .41166673 .35200004 .37700004 C .32200004 .34300003 .28166668 .32133339 .231 .31200005 L .43700005 .036000004 L .43700005 .028 L .37800003 0 L .155 .30400003 L .067999999 .30400003 L .067999999 .013 L 0 .013 L 0 .693 L .17400003 .693 C .2446667 .693 .29966668 .67633339 .33900003 .64300009 C .37833337 .6103334 .39800004 .56400009 .39800004 .504 M .328 .504 C .328 .546 .31366668 .5770001 .28500004 .59700009 C .25700004 .61700007 .21966668 .62700006 .17300001 .62700006 L .067999999 .62700006 L .067999999 .36900003 L .171 .36900003 C .191 .36900006 .21033335 .37133337 .229 .37600003 C .24833334 .38133336 .26533336 .38933338 .28000004 .40000005 C .29466669 .4106667 .30633334 .42466674 .31500004 .44200004 C .3236667 .45933334 .328 .48000003 .328 .504 Z "/>
</symbol>
<use xlink:href="#font_2_2" transform="matrix(24,0,0,-24,525.75729,117.7599)"/>
<use xlink:href="#font_2_8" transform="matrix(24,0,0,-24,538.1653,117.73591)"/>
<use xlink:href="#font_2_9" transform="matrix(24,0,0,-24,548.9653,122.41591)"/>
<use xlink:href="#font_2_e" transform="matrix(24,0,0,-24,561.20529,117.73591)"/>
<use xlink:href="#font_2_a" transform="matrix(24,0,0,-24,573.08529,117.44791)"/>
<use xlink:href="#font_2_6" transform="matrix(24,0,0,-24,577.81326,117.7599)"/>
<use xlink:href="#font_2_d" transform="matrix(24,0,0,-24,587.79727,117.44791)"/>
<use xlink:href="#font_2_8" transform="matrix(24,0,0,-24,595.76528,117.73591)"/>
<use xlink:href="#font_2_7" transform="matrix(24,0,0,-24,606.5653,117.73591)"/>
</g>
</g>
</g>
</svg>
