<?xml version="1.0" encoding="UTF-8" standalone="no"?>
<!DOCTYPE svg PUBLIC "-//W3C//DTD SVG 1.1//EN" "http://www.w3.org/Graphics/SVG/1.1/DTD/svg11.dtd">
<svg xmlns="http://www.w3.org/2000/svg" xmlns:xlink="http://www.w3.org/1999/xlink" version="1.1" width="198.22943pt" height="223.5423pt" viewBox="0 0 198.22943 223.5423">
<g enable-background="new">
<clipPath id="cp0">
<path transform="matrix(1,0,0,-1,-934.8376,780.4001)" d="M 0 0 L 1920 0 L 1920 1080 L 0 1080 Z "/>
</clipPath>
<g clip-path="url(#cp0)">
<path transform="matrix(1,0,0,-1,-934.8376,780.4001)" d="M 0 0 L 1920 0 L 1920 1080 L 0 1080 Z " fill="#ffffff"/>
<g id="Layer-1" data-name="P">
</g>
<g id="Layer-1" data-name="P">
<symbol id="font_1_1">
<path d="M .521 .57100006 C .51166668 .5770001 .501 .58366677 .48900006 .591 C .47700004 .59900006 .46300004 .6063334 .447 .61300006 C .4316667 .6196667 .41433335 .62500008 .395 .62900009 C .37633337 .6336667 .35566668 .63600006 .33300004 .63600006 C .29833339 .63600006 .26533336 .62966677 .23400003 .61700007 C .20333334 .6043334 .176 .5856667 .15200001 .56100007 C .12866669 .537 .110000018 .50733336 .096000019 .47200004 C .08266667 .4366667 .076000008 .39633338 .076000008 .35100005 C .076000008 .3116667 .08200001 .275 .09400001 .24100001 C .106000009 .207 .123333338 .17733334 .14600002 .15200001 C .16866668 .12666668 .19600003 .10666668 .22800002 .09200001 C .26000003 .07733334 .2956667 .07000001 .335 .07000001 C .37633337 .07000001 .41300003 .07700001 .44500003 .091000009 C .477 .105666678 .50666669 .12166667 .534 .139 L .557 .07700001 C .53033336 .05566667 .49733339 .037333337 .45800004 .022 C .4186667 .007333333 .377 0 .33300004 0 C .2836667 0 .23866667 .008666667 .19800002 .026 C .15733335 .044 .12233335 .068666677 .09300001 .10000001 C .06366667 .13133334 .04066667 .168 .024 .21000001 C .008 .252 0 .2976667 0 .34700004 C 0 .4036667 .009 .45400004 .026999999 .49800004 C .04566667 .54266676 .07033334 .5803334 .10100001 .61100009 C .13166668 .6416667 .16700001 .665 .20700002 .68100008 C .24766667 .6976667 .29033337 .70600005 .335 .70600005 C .3576667 .70600005 .37933336 .7036667 .40000005 .69900009 C .4206667 .695 .43966673 .6896667 .45700006 .683 C .47500006 .67633339 .49133338 .66899999 .506 .661 C .52066668 .65300008 .5336667 .64500007 .545 .637 L .521 .57100006 Z "/>
</symbol>
<use xlink:href="#font_1_1" transform="matrix(24,0,0,-24,159.71836,107.31389)"/>
<symbol id="font_1_8">
<path d="M .14000002 0 L .14000002 .614 L .0060000049 .59800007 L 0 .66300007 L .19500003 .688 L .21200001 .67600008 L .21200001 0 L .14000002 0 Z "/>
</symbol>
<use xlink:href="#font_1_8" transform="matrix(16,0,0,-16,175.46236,109.06586)"/>
</g>
<g id="Layer-1" data-name="P">
</g>
<g id="Layer-1" data-name="P">
<use xlink:href="#font_1_1" transform="matrix(24,0,0,-24,7.9554159,107.31389)"/>
<symbol id="font_1_7">
<path d="M .49600006 .36 C .49600006 .3 .49000005 .24733335 .47800005 .202 C .46600006 .15733333 .44900004 .120000008 .42700006 .09 C .40500007 .060000004 .37900005 .037333337 .34900005 .022 C .31900005 .007333333 .286 0 .25000004 0 C .21533335 0 .18266666 .0070000009 .15200001 .021000002 C .12200001 .035 .09566667 .056666674 .073 .08600001 C .050333334 .11533334 .032333334 .15266668 .018999998 .198 C .0063333327 .24333336 0 .29733337 0 .36 C 0 .41666667 .0063333327 .46633337 .018999998 .509 C .032333334 .55233338 .050333334 .58833339 .073 .61700007 C .09566667 .6463334 .12200001 .66833338 .15200001 .683 C .18266666 .6983333 .21533335 .70600005 .25000004 .70600005 C .286 .70600005 .31900005 .6983333 .34900005 .683 C .37900005 .66833338 .40500007 .6463334 .42700006 .61700007 C .44900004 .5876667 .46600006 .55133339 .47800005 .508 C .49000005 .46533338 .49600006 .41600005 .49600006 .36 M .42300005 .36200003 C .423 .4046667 .4186667 .44300006 .41000004 .47700004 C .40200005 .5116667 .39000003 .54100009 .37400005 .56500008 C .3586667 .58900007 .34000004 .60733339 .31800003 .62000009 C .29666669 .6333334 .27266667 .64000007 .246 .64000007 C .222 .64000007 .19933333 .63400009 .178 .62200006 C .15733333 .6106667 .139 .59333339 .122999999 .57000008 C .107666667 .54733338 .09533333 .5183334 .085999999 .48300005 C .07733333 .44833336 .073 .40800003 .073 .36200003 C .073 .31000004 .07766666 .26500003 .087 .22700002 C .097 .18966668 .10999999 .159 .126 .135 C .14266669 .111 .16166668 .09333334 .183 .082 C .205 .07066666 .22766668 .065 .25100003 .065 C .30633334 .065 .34866668 .091 .37800003 .143 C .40800003 .19566667 .423 .26866666 .42300005 .36200003 Z "/>
</symbol>
<use xlink:href="#font_1_7" transform="matrix(16,0,0,-16,23.155417,109.27386)"/>
</g>
<g id="Layer-1" data-name="P">
<path transform="matrix(1,0,0,1,36.343446,56.267396)" stroke-width="2" stroke-linecap="butt" stroke-miterlimit="4" stroke-linejoin="miter" fill="none" stroke="#000000" d="M 0 25.3144 C 37.32765 -7.16774 74.65529 -8.390316 111.9829 21.64667 L 112.7488 22.29449 "/>
<path transform="matrix(1,0,0,-1,-934.8376,780.4001)" d="M 1078.234 700.3691 L 1088.664 697.8343 L 1084.434 707.6988 L 1083.166 702.484 Z "/>
</g>
<g id="Layer-1" data-name="P">
<path transform="matrix(1,0,0,1,36.343446,114.82178)" stroke-width="2" stroke-linecap="butt" stroke-miterlimit="4" stroke-linejoin="miter" fill="none" stroke="#000000" d="M 4.773804 4.940099 L 5.543772 5.578181 C 42.85852 34.95373 80.17058 33.0936 117.4826 0 "/>
<path transform="matrix(1,0,0,-1,-934.8376,780.4001)" d="M 981.6354 662.1646 L 971.181 664.5943 L 975.5099 654.7729 L 976.7247 660.0001 Z "/>
</g>
<g id="Layer-1" data-name="P">
</g>
<g id="Layer-1" data-name="P">
<symbol id="font_1_3">
<path d="M .51400008 0 L .44100005 0 L .44100005 .32000003 L .07300001 .32000003 L .07300001 0 L 0 0 L 0 .68 L .07300001 .68 L .07300001 .388 L .44100005 .388 L .44100005 .68 L .51400008 .68 L .51400008 0 Z "/>
</symbol>
<use xlink:href="#font_1_3" transform="matrix(24,0,0,-24,151.03845,21.626709)"/>
<symbol id="font_1_9">
<path d="M .050000006 .638 C .054 .64133337 .06133334 .64599999 .072000008 .652 C .08266667 .658 .09600001 .66400006 .112 .67 C .128 .67600008 .14633334 .68133339 .16700001 .68600007 C .18766667 .6906667 .21000003 .693 .23400001 .693 C .26266668 .693 .28966669 .6893334 .315 .68200007 C .341 .6753333 .36366669 .6643334 .38300003 .64900007 C .40233336 .6343334 .41733334 .6153334 .428 .592 C .43933336 .5686667 .44500003 .54033336 .44500003 .507 C .44500003 .43833337 .41733337 .36866669 .36200003 .298 C .3066667 .228 .22866668 .15333334 .128 .074 L .13200002 .067 L .455 .07300001 L .455 0 L .01 0 L 0 .035 C .07 .09233334 .12833335 .14366667 .17500001 .18900001 C .22233336 .23500002 .26033334 .27633337 .289 .31300003 C .31766669 .35033337 .33800004 .38366667 .35 .41300003 C .3626667 .44300006 .36900006 .47033338 .36900003 .49500004 C .36900006 .53900006 .35600005 .572 .33 .59400007 C .30466668 .616 .271 .62700006 .22900002 .62700006 C .209 .62700006 .18966668 .6246667 .171 .62 C .15233334 .6153334 .13533335 .6096667 .120000008 .60300007 C .105333339 .5963334 .09233334 .58966669 .08100001 .583 C .069666679 .57699999 .06133334 .572 .056 .568 L .050000006 .638 Z "/>
</symbol>
<use xlink:href="#font_1_9" transform="matrix(16,0,0,-16,165.95046,23.690674)"/>
<symbol id="font_1_4">
<path d="M .654 .34800003 C .654 .3006667 .64599999 .256 .63 .214 C .614 .172 .5913333 .135 .562 .103 C .5333333 .071666669 .49899999 .046666668 .45900003 .028 C .41966669 .009333334 .37600003 0 .328 0 C .28066669 0 .23700004 .008666667 .19700003 .026 C .15700002 .044 .12233335 .068333338 .09300001 .09900001 C .06366667 .13033334 .04066667 .167 .024 .209 C .008 .2516667 0 .298 0 .34800003 C 0 .40200005 .009 .451 .026999999 .49500004 C .04566667 .5396667 .07 .5773334 .10000001 .60800006 C .13066668 .63933339 .16566669 .66333338 .20500002 .68000009 C .24433334 .69733336 .28533338 .70600005 .328 .70600005 C .372 .70600005 .4136667 .6976667 .45300005 .68100008 C .49233339 .66433337 .5266667 .64033338 .556 .609 C .586 .5783334 .60966667 .5406667 .62700006 .49600003 C .645 .45200003 .654 .4026667 .654 .34800003 M .578 .35000003 C .578 .39200006 .57166668 .4306667 .559 .46600003 C .5463334 .5013334 .5286667 .5313334 .506 .55600008 C .48333336 .5813334 .4566667 .6010001 .42600004 .61500009 C .39533339 .629 .36166669 .63600006 .32500003 .63600006 C .293 .63600006 .262 .6293334 .23200003 .61600008 C .20200002 .6033334 .17533334 .5846667 .15200001 .56000009 C .12933335 .5353334 .11100001 .50533339 .097 .47000004 C .083000008 .43466673 .076000008 .39466668 .076000008 .35000003 C .076000008 .31266669 .08166667 .27700005 .09300001 .243 C .10433334 .20966667 .121000017 .18 .143 .154 C .165 .12866669 .19166668 .10833335 .22300002 .09300001 C .25433336 .07766668 .29 .07000001 .33 .07000001 C .36733339 .07000001 .40133337 .07766668 .432 .09300001 C .46266667 .10833335 .48866669 .12866669 .51 .154 C .532 .18 .54866668 .20966667 .56 .243 C .572 .27700005 .578 .31266669 .578 .35000003 Z "/>
</symbol>
<use xlink:href="#font_1_4" transform="matrix(24,0,0,-24,175.51845,21.93871)"/>
</g>
<g id="Layer-1" data-name="P">
</g>
<g id="Layer-1" data-name="P">
<use xlink:href="#font_1_4" transform="matrix(24,0,0,-24,7.9552938,21.93871)"/>
<use xlink:href="#font_1_9" transform="matrix(16,0,0,-16,25.507294,23.690674)"/>
</g>
<g id="Layer-1" data-name="P">
<path transform="matrix(1,0,0,1,38.18329,31.224793)" stroke-width="2" stroke-linecap="butt" stroke-miterlimit="4" stroke-linejoin="miter" fill="none" stroke="#000000" d="M 0 0 C 36.07028 30.89165 72.14057 32.59423 108.2108 5.107732 L 108.9933 4.478667 "/>
<path transform="matrix(1,0,0,-1,-934.8376,780.4001)" d="M 1082.372 738.8253 L 1086.846 748.5815 L 1076.357 746.307 L 1081.235 744.07 Z "/>
</g>
<g id="Layer-1" data-name="P">
</g>
<g id="Layer-1" data-name="P">
<symbol id="font_1_5">
<path d="M .072000008 .21700001 C .072000008 .18766667 .075333338 .163 .082 .143 C .08933333 .123 .09900001 .10666668 .111 .094000007 C .123 .08133334 .13700001 .072333339 .15300001 .067 C .16900002 .061666669 .186 .059 .20400001 .059 C .22333336 .059 .24333334 .06333333 .264 .072000008 C .28533335 .08133334 .303 .093 .31700004 .10700001 L .32 .10700001 L .333 .049000004 C .31766669 .033666668 .29766668 .021666667 .273 .013 C .249 .0043333338 .22233333 0 .193 0 C .16766668 0 .14333333 .0043333338 .120000008 .013 C .09666667 .021666667 .076000008 .035 .058000007 .053000004 C .040666675 .071 .026666671 .094000007 .016000003 .12200001 C .005333334 .15066667 0 .18466668 0 .224 C 0 .2606667 .0050000005 .294 .015000001 .324 C .025 .35466669 .03866667 .381 .056 .40300004 C .07333333 .42500005 .094000007 .44200004 .118 .45400004 C .142 .466 .16800003 .472 .19600001 .472 C .22133334 .472 .244 .46733333 .264 .458 C .2846667 .44866667 .30200003 .43600003 .31600005 .42000003 C .33 .404 .34066669 .385 .348 .363 C .35600005 .34166668 .36 .31866668 .36 .294 C .36 .28466667 .359 .27266667 .357 .25800003 C .35566668 .244 .3526667 .23033333 .348 .21700001 L .072000008 .21700001 M .288 .269 C .29133336 .29166667 .29100005 .31166668 .287 .329 C .28300003 .347 .27633337 .36233334 .26700003 .375 C .25833337 .3876667 .24766667 .39733336 .235 .404 C .22233333 .41066668 .20866668 .414 .194 .414 C .17666668 .414 .16066669 .41 .14600002 .402 C .13200002 .39466668 .11966667 .38433335 .10900001 .37100003 C .099000018 .35833336 .09100001 .34300003 .08500001 .32500003 C .079 .30766667 .07566667 .289 .075 .269 L .288 .269 Z "/>
</symbol>
<use xlink:href="#font_1_5" transform="matrix(24,0,0,-24,86.50639,216.88016)"/>
<symbol id="font_1_6">
<path d="M .40000005 .069000009 L .40000005 0 L 0 0 L 0 .069000009 L .40000005 .069000009 Z "/>
</symbol>
<use xlink:href="#font_1_6" transform="matrix(16,0,0,-16,96.866397,207.87216)"/>
</g>
<g id="Layer-1" data-name="P">
</g>
<g id="Layer-1" data-name="P">
<symbol id="font_1_2">
<path d="M .36600004 .61300006 L .07300001 .61300006 L .07300001 .388 L .33600004 .388 L .33600004 .32000003 L .07300001 .32000003 L .07300001 .067 L .37600003 .067 L .37600003 0 L 0 0 L 0 .68 L .36600004 .68 L .36600004 .61300006 Z "/>
</symbol>
<use xlink:href="#font_1_2" transform="matrix(24,0,0,-24,86.418399,79.50189)"/>
<use xlink:href="#font_1_7" transform="matrix(16,0,0,-16,97.29839,81.77386)"/>
</g>
<g id="Layer-1" data-name="P">
</g>
<g id="Layer-1" data-name="P">
<use xlink:href="#font_1_2" transform="matrix(24,0,0,-24,87.53839,135.50189)"/>
<use xlink:href="#font_1_8" transform="matrix(16,0,0,-16,98.96239,137.56586)"/>
</g>
<g id="Layer-1" data-name="P">
<path transform="matrix(0,-1,1,0,93.54645,189.78406)" stroke-width="2" stroke-linecap="butt" stroke-miterlimit="4" stroke-linejoin="miter" fill="none" stroke="#000000" d="M 0 0 L 36.89033 0 L 37.89033 0 "/>
<path transform="matrix(1,0,0,-1,-934.8376,780.4001)" d="M 1033.184 625.1063 L 1028.384 634.7063 L 1023.584 625.1063 L 1028.384 627.5063 Z "/>
</g>
</g>
</g>
</svg>
