<?xml version="1.0" encoding="UTF-8" standalone="no"?>
<!DOCTYPE svg PUBLIC "-//W3C//DTD SVG 1.1//EN" "http://www.w3.org/Graphics/SVG/1.1/DTD/svg11.dtd">
<svg xmlns="http://www.w3.org/2000/svg" xmlns:xlink="http://www.w3.org/1999/xlink" version="1.1" width="299.7263pt" height="357.96125pt" viewBox="0 0 299.7263 357.96125">
<g enable-background="new">
<clipPath id="cp0">
<path transform="matrix(1,0,0,-1,-339.8215,673.8685)" d="M 0 0 L 1024 0 L 1024 768 L 0 768 Z "/>
</clipPath>
<g clip-path="url(#cp0)">
<path transform="matrix(1,0,0,-1,-339.8215,673.8685)" d="M 0 0 L 1024 0 L 1024 768 L 0 768 Z " fill="#ffffff"/>
<g id="Layer-1" data-name="P">
<path transform="matrix(0,1,-1,-0,155.1174,31.04663)" stroke-width="2" stroke-linecap="butt" stroke-miterlimit="4" stroke-linejoin="miter" fill="none" stroke="#000000" d="M 0 0 L 43.29999 0 L 44.29999 0 "/>
<path transform="matrix(1,0,0,-1,-339.8215,673.8685)" d="M 490.1389 601.9219 L 494.9389 592.3219 L 499.7389 601.9219 L 494.9389 599.5219 Z "/>
</g>
<g id="Layer-1" data-name="P">
</g>
<g id="Layer-1" data-name="P">
<symbol id="font_1_2">
<path d="M .18600002 .067 C .22733335 .067 .26400004 .07333333 .296 .086 C .3286667 .09866667 .35633336 .116666678 .379 .14 C .40166674 .16400002 .4186667 .19233334 .43 .22500001 C .442 .25833337 .44800005 .29533337 .448 .33600004 C .44800005 .386 .44033338 .42833338 .425 .46300004 C .4096667 .49833337 .38933335 .527 .36400003 .549 C .3393334 .57100006 .31133337 .587 .28000004 .597 C .24866669 .6076667 .21700001 .61300006 .185 .61300006 L .07300001 .61300006 L .07300001 .067 L .18600002 .067 M 0 0 L 0 .68 L .18100003 .68 C .22966667 .68 .275 .6716667 .31700004 .65500006 C .35900007 .639 .39533339 .616 .426 .586 C .45666669 .556 .48066668 .5196667 .49800004 .47700004 C .51533338 .43433336 .52400007 .3866667 .52400007 .33400003 C .52400007 .28266669 .51533338 .23633333 .49800004 .19500001 C .48133338 .15366668 .45800004 .11833334 .42800004 .089 C .398 .060333339 .36200003 .038333339 .32000003 .023000002 C .27800004 .0076666676 .23200004 0 .18200001 0 L 0 0 Z "/>
</symbol>
<symbol id="font_1_4">
<path d="M .49300004 .164 L .50100007 .16600001 L .50100007 .689 L .57400009 .689 L .57400009 .008 L .54700008 0 L .08100001 .53300008 L .07300001 .531 L .07300001 .009000001 L 0 .009000001 L 0 .69000008 L .026999996 .698 L .49300004 .164 Z "/>
</symbol>
<symbol id="font_1_19">
<path d="M .45700003 .20500002 L .157 .20500002 L .071 0 L 0 .020000002 L .29900003 .708 L .31700004 .708 L .614 .020000002 L .54300007 0 L .45700003 .20500002 M .185 .273 L .42900003 .273 L .31100003 .556 L .30400003 .556 L .185 .273 Z "/>
</symbol>
<symbol id="font_1_1">
<path d="M 0 0 Z "/>
</symbol>
<symbol id="font_1_7">
<path d="M .30900003 .064 C .267 .021333335 .22133334 0 .172 0 C .14666666 0 .123333338 .004666667 .102 .014 C .08133333 .024000003 .06333333 .038333339 .048 .057000005 C .033333336 .07633334 .021666667 .1 .013 .128 C .0043333338 .156 0 .18800001 0 .224 C 0 .25800003 .0046666676 .29 .014000002 .32000003 C .023333336 .35066668 .036666674 .377 .054000006 .39900003 C .071333337 .4216667 .09266666 .43933336 .118 .45200003 C .14333333 .46533335 .17166667 .472 .20300001 .472 C .22566669 .472 .24566667 .46800003 .263 .46 C .28100003 .45266668 .2956667 .44333337 .30700005 .432 L .31 .432 L .31 .69200006 L .38 .70400008 L .38 .012 L .328 .012 L .31300003 .064 L .30900003 .064 M .18900001 .060000004 C .21033335 .060000004 .23133333 .06533334 .25200004 .076000008 C .27333338 .087333347 .2926667 .105 .31 .12900001 L .31 .36200003 C .29733334 .37800003 .282 .39033333 .264 .39900003 C .246 .40766669 .22733335 .41200004 .20800002 .412 C .18533336 .41200004 .16533335 .40733335 .148 .398 C .13133334 .38933335 .117333348 .377 .106000009 .361 C .09466667 .34500004 .086 .32566668 .08 .303 C .07466667 .28100003 .072000008 .2566667 .072000008 .23 C .072000008 .17333333 .083000008 .13066666 .105000007 .102000009 C .12700002 .074 .15500002 .060000004 .18900001 .060000004 Z "/>
</symbol>
<symbol id="font_1_6">
<path d="M .36300005 .042000005 L .31400005 0 C .30333338 .007333333 .29333339 .016 .28400005 .026 C .2746667 .036000004 .26833336 .048000006 .26500003 .062000004 L .26000003 .062000004 C .24466668 .041333338 .22566666 .026 .203 .016 C .181 .0060000007 .15733333 .0010000002 .132 .0010000002 C .114 .0010000002 .097 .004 .081 .01 C .065 .016 .051 .024333336 .039 .035000005 C .027 .04633333 .017333335 .060000004 .010000002 .076000008 C .0033333339 .09200001 0 .110333349 0 .13100001 C 0 .14766668 .0029999999 .16433335 .009 .18100001 C .0150000019 .19766666 .025 .21266668 .039 .22600001 C .053000004 .23933335 .07133334 .25 .094 .25800003 C .116666678 .26666669 .14466667 .27100004 .178 .27100004 C .19000001 .27100004 .20300001 .27033339 .217 .26900003 C .231 .2676667 .24433334 .26600004 .25700004 .26400004 L .25700004 .31400005 C .25700004 .33266673 .25400005 .34833337 .24800001 .36100004 C .242 .37433339 .23433334 .38466669 .22500001 .39200003 C .21633333 .4 .20633334 .4056667 .19500001 .40900005 C .18366666 .41233338 .17266667 .41400004 .162 .41400004 C .14266667 .41400004 .123 .41000007 .103 .40200005 C .08366666 .3946667 .063666667 .38366667 .043 .36900003 L .018999998 .42400003 C .039 .43600003 .061999997 .44700004 .088 .45700006 C .11466667 .46766673 .145 .47300003 .179 .47300003 C .19700001 .47300003 .21466668 .47033335 .23200001 .46500004 C .24933334 .45966674 .26466669 .45100007 .27800004 .43900005 C .29133336 .4276667 .30200006 .41266669 .31000004 .39400003 C .3186667 .37600003 .323 .35433338 .323 .32900004 L .323 .117 C .323 .09966668 .32700003 .08466667 .33500005 .072000008 C .34300003 .060000004 .3523334 .051333336 .36300005 .046 L .36300005 .042000005 M .25700004 .21200001 C .24566667 .214 .23333334 .21566667 .22000002 .21700001 C .20666667 .21900003 .19233334 .22000002 .177 .22000002 C .14166667 .22000002 .11466666 .21200001 .096 .19600001 C .07733334 .18 .068 .15866667 .068 .132 C .068 .108 .075333338 .089666668 .09 .07700001 C .105333339 .065000008 .124000009 .059000005 .146 .059000005 C .17133333 .059000005 .19366668 .06566667 .21300002 .078999999 C .23300003 .093 .24766667 .111 .25700004 .133 L .25700004 .21200001 Z "/>
</symbol>
<symbol id="font_1_d">
<path d="M .33400003 .38700003 C .35933338 .4096667 .38366667 .42733336 .40700004 .44000004 C .43100003 .45333336 .45800004 .46 .48800005 .46 C .504 .46 .52000007 .45700003 .536 .45100004 C .552 .4456667 .566 .43700005 .578 .425 C .5906667 .4136667 .6006667 .39900003 .60800006 .381 C .61600008 .363 .62000009 .34133337 .62000009 .316 L .62000009 0 L .55 0 L .55 .30100004 C .55 .33500005 .5416667 .35933338 .52500006 .374 C .5083334 .38866673 .489 .39600004 .467 .39600004 C .443 .39600004 .42033337 .38966669 .39900003 .377 C .37833337 .36433337 .36033336 .35033334 .34500004 .335 L .34500004 0 L .275 0 L .275 .30600003 C .275 .32333336 .272 .33766667 .26600004 .349 C .2606667 .36100004 .25366668 .37033335 .245 .377 C .237 .38433335 .22766668 .38933335 .21700001 .39200003 C .20700002 .39466668 .19700003 .39600004 .187 .39600004 C .16566667 .39600004 .14433334 .39000003 .123 .37800003 C .10233334 .3666667 .08466667 .35200004 .07 .33400003 L .07 0 L 0 0 L 0 .448 L .059 .448 L .06600001 .39200003 L .07 .39200003 C .087333347 .4106667 .108 .4266667 .132 .44000004 C .15666667 .45333336 .18300002 .46 .21100003 .46 C .23500002 .46 .25766669 .4536667 .279 .441 C .30033336 .42900003 .3166667 .411 .328 .38700003 L .33400003 .38700003 Z "/>
</symbol>
<symbol id="font_1_9">
<path d="M .193 .261 C .21233334 .261 .23266669 .266 .254 .27600003 C .276 .286 .29466669 .3026667 .31 .32600004 L .31 .55700007 C .30066667 .57100006 .28633336 .58333346 .26700003 .59400007 C .24833334 .6046667 .22866668 .61 .20800002 .61 C .18666668 .61 .16766668 .605 .15100001 .595 C .13433333 .5856667 .120000008 .5723334 .10800001 .55500009 C .09666667 .53833338 .08766667 .51800009 .081 .49400003 C .075 .47066669 .072000008 .4446667 .072000008 .416 C .072000008 .36200003 .083000008 .3226667 .105000007 .29800005 C .12766667 .27333335 .157 .261 .193 .261 M .057000005 .103000018 C .072333339 .08966669 .089999999 .07900001 .11 .07100001 C .13 .063000019 .153 .059000017 .179 .059000017 C .19500001 .059000017 .21066667 .061333348 .22600003 .066000018 C .242 .07066668 .256 .07866668 .268 .09000001 C .28066669 .10066668 .29066668 .11566669 .29800005 .13500002 C .30600003 .15366669 .31 .17733336 .31 .20600002 L .31 .25800003 L .306 .25800003 C .28733335 .23733334 .26733334 .223 .246 .21500002 C .22533335 .20700002 .20266669 .20300003 .178 .20300003 C .123333338 .20300003 .080000009 .22133334 .048 .25800003 C .016 .29533337 0 .349 0 .41900004 C 0 .45233337 .0046666676 .48400007 .014000002 .51400008 C .023333336 .544 .036666674 .57033339 .054000006 .59300008 C .071333337 .6156667 .09266666 .6336667 .118 .6470001 C .14400001 .6603334 .173 .66700008 .205 .66700008 C .22233336 .66700008 .24100001 .66333338 .26100005 .656 C .28166668 .64933338 .29966668 .6383334 .315 .623 L .32 .623 L .339 .65800008 L .38 .65400007 L .38 .20900002 C .38 .17366667 .37399999 .14300002 .362 .11700001 C .35000003 .09100001 .33433334 .069333348 .315 .052000017 C .29633335 .034666677 .275 .021666676 .251 .013000011 C .227 .0043333375 .20266669 0 .178 0 C .14400001 0 .11433333 .004666671 .089 .0140000139 C .064333338 .022666678 .044 .034333346 .028000005 .04900001 L .055 .103000018 L .057000005 .103000018 Z "/>
</symbol>
<symbol id="font_1_8">
<path d="M .072000008 .21700001 C .072000008 .18766667 .075333338 .163 .082 .143 C .08933333 .123 .09900001 .10666668 .111 .094000007 C .123 .08133334 .13700001 .072333339 .15300001 .067 C .16900002 .061666669 .186 .059 .20400001 .059 C .22333336 .059 .24333334 .06333333 .264 .072000008 C .28533335 .08133334 .303 .093 .31700004 .10700001 L .32 .10700001 L .333 .049000004 C .31766669 .033666668 .29766668 .021666667 .273 .013 C .249 .0043333338 .22233333 0 .193 0 C .16766668 0 .14333333 .0043333338 .120000008 .013 C .09666667 .021666667 .076000008 .035 .058000007 .053000004 C .040666675 .071 .026666671 .094000007 .016000003 .12200001 C .005333334 .15066667 0 .18466668 0 .224 C 0 .2606667 .0050000005 .294 .015000001 .324 C .025 .35466669 .03866667 .381 .056 .40300004 C .07333333 .42500005 .094000007 .44200004 .118 .45400004 C .142 .466 .16800003 .472 .19600001 .472 C .22133334 .472 .244 .46733333 .264 .458 C .2846667 .44866667 .30200003 .43600003 .31600005 .42000003 C .33 .404 .34066669 .385 .348 .363 C .35600005 .34166668 .36 .31866668 .36 .294 C .36 .28466667 .359 .27266667 .357 .25800003 C .35566668 .244 .3526667 .23033333 .348 .21700001 L .072000008 .21700001 M .288 .269 C .29133336 .29166667 .29100005 .31166668 .287 .329 C .28300003 .347 .27633337 .36233334 .26700003 .375 C .25833337 .3876667 .24766667 .39733336 .235 .404 C .22233333 .41066668 .20866668 .414 .194 .414 C .17666668 .414 .16066669 .41 .14600002 .402 C .13200002 .39466668 .11966667 .38433335 .10900001 .37100003 C .099000018 .35833336 .09100001 .34300003 .08500001 .32500003 C .079 .30766667 .07566667 .289 .075 .269 L .288 .269 Z "/>
</symbol>
<use xlink:href="#font_1_2" transform="matrix(24,0,0,-24,97.2294,20.676636)"/>
<use xlink:href="#font_1_4" transform="matrix(24,0,0,-24,113.3094,20.892636)"/>
<use xlink:href="#font_1_19" transform="matrix(24,0,0,-24,129.98941,20.916636)"/>
<use xlink:href="#font_1_1" transform="matrix(24,0,0,-24,145.5174,20.676636)"/>
<use xlink:href="#font_1_7" transform="matrix(24,0,0,-24,151.8774,20.964636)"/>
<use xlink:href="#font_1_6" transform="matrix(24,0,0,-24,163.68541,20.988636)"/>
<use xlink:href="#font_1_d" transform="matrix(24,0,0,-24,174.9174,20.676636)"/>
<use xlink:href="#font_1_6" transform="matrix(24,0,0,-24,192.48542,20.988636)"/>
<use xlink:href="#font_1_9" transform="matrix(24,0,0,-24,203.23741,25.644637)"/>
<use xlink:href="#font_1_8" transform="matrix(24,0,0,-24,214.99742,20.964636)"/>
</g>
<g id="Layer-1" data-name="P">
</g>
<g id="Layer-1" data-name="P">
<symbol id="font_1_13">
<path d="M .279 .066 C .26233337 .047999998 .24233334 .032333334 .21900001 .019000002 C .19566667 .006333334 .16800003 0 .136 0 C .11866667 0 .10166667 .0029999999 .085 .009 C .069 .014333334 .05466667 .023000002 .042000005 .035000005 C .029333337 .04766667 .019000002 .064 .011 .08400001 C .0036666666 .10400001 0 .12866669 0 .158 L 0 .46 L .07 .46 L .07 .182 C .07 .13866668 .07766667 .108 .093 .09 C .109000008 .072000008 .13066668 .063 .15799999 .063 C .17066668 .063 .18333335 .06533334 .19600001 .07 C .20866668 .07466667 .22033334 .08066667 .231 .08800001 C .24233336 .09600001 .252 .10500001 .26000003 .11500001 C .2686667 .12566667 .27533338 .13700001 .28000004 .149 L .28000004 .46 L .35000003 .46 L .35000003 .012 L .289 .012 L .28300003 .066 L .279 .066 Z "/>
</symbol>
<symbol id="font_1_f">
<path d="M .066999997 .609 C .08233333 .6263334 .10033333 .63966676 .121 .64900007 C .14233333 .65900006 .16533335 .66400006 .19000003 .66400006 C .21266668 .66400006 .23533334 .6596667 .25800003 .651 C .28066669 .6423333 .30100004 .62833335 .319 .609 C .337 .5903334 .3516667 .56600007 .36300005 .536 C .37433339 .506 .38000003 .4696667 .38000003 .42700003 C .38000003 .38233338 .37300004 .34500004 .35900004 .31500004 C .34566669 .285 .32900004 .2606667 .30900003 .24200002 C .289 .22400002 .26733337 .21133335 .24400002 .20400001 C .22133334 .19600003 .20100002 .19200002 .183 .19200002 C .16633334 .19200002 .14766667 .19500001 .127 .201 C .10633334 .20700002 .08900001 .21766667 .074999999 .23300001 L .07 .23300001 L .07 .012000009 L 0 0 L 0 .652 L .046000005 .65500006 L .062 .609 L .066999997 .609 M .17900002 .60400006 C .15500002 .60400006 .13366668 .59900006 .115 .58900007 C .09633333 .5796667 .08133334 .56700006 .07 .551 L .07 .30200003 C .08133334 .28266669 .095000009 .26933334 .11100001 .26200003 C .12766667 .25533334 .14733334 .252 .17000002 .252 C .186 .252 .20200002 .2546667 .21800003 .26000003 C .2346667 .26600004 .24966669 .27566669 .263 .289 C .27633337 .30233336 .28700004 .31966669 .29500003 .34100003 C .30366669 .363 .30800004 .39000003 .30800004 .42200003 C .30800004 .45866669 .30366669 .48866669 .29500003 .512 C .28633336 .536 .27533335 .5546667 .26200003 .568 C .24933337 .58133336 .23533337 .5906667 .22000003 .596 C .20533335 .6013334 .19166668 .60400006 .17900002 .60400006 Z "/>
</symbol>
<symbol id="font_1_11">
<path d="M .26700003 .36400003 C .24566667 .38000003 .22533334 .39233337 .20600002 .40100003 C .18733335 .4096667 .168 .414 .148 .414 C .12466667 .414 .107 .40833334 .095 .397 C .08366666 .38633336 .078 .37366668 .078 .359 C .078 .349 .08066667 .3396667 .086 .331 C .09133333 .32299999 .09866667 .31500004 .10800001 .307 C .11800001 .29966668 .12966667 .29200004 .143 .284 C .157 .27666668 .172 .26866666 .18800001 .26000003 C .23 .23666668 .25833334 .21433334 .273 .193 C .28833334 .17166667 .296 .14766668 .296 .12100001 C .296 .10100001 .29166667 .083333339 .283 .068 C .275 .052666669 .26433335 .040000004 .251 .030000002 C .23766668 .020000002 .22200002 .012666668 .20400001 .007999999 C .18666667 .0026666665 .16866668 0 .15 0 C .11866667 0 .089666668 .0053333339 .063 .016 C .036333335 .02666667 .015333335 .03866667 0 .052 L .024999999 .106000009 C .04433334 .09266666 .06333334 .08166667 .082 .07300001 C .10133334 .06433334 .12366667 .060000004 .149 .060000004 C .17166668 .060000004 .19066668 .065000008 .20600002 .075 C .22133334 .08566668 .22900002 .10033334 .22900002 .11900001 C .22900002 .13966668 .21933335 .15733333 .2 .172 C .18066667 .18733335 .15500002 .20366667 .12300001 .221 C .10433334 .231 .088 .24066668 .074 .25 C .060000004 .25933335 .048333337 .26900003 .039000006 .279 C .029666668 .28966669 .022666665 .30100004 .018 .31300003 C .013333333 .32500003 .011 .33866669 .011 .354 C .011 .36933337 .0139999999 .38399998 .02 .398 C .025999999 .41266669 .03466667 .42533336 .046000005 .43600003 C .058000003 .44733335 .072333339 .456 .089 .462 C .105666678 .46866668 .125 .472 .147 .472 C .17500001 .472 .20133335 .4666667 .226 .45600004 C .25066669 .44533337 .27266667 .43233336 .292 .41700004 L .26700003 .36400003 Z "/>
</symbol>
<symbol id="font_1_12">
<path d="M .162 .60400006 L .162 .448 L .26900003 .448 L .26900003 .39100004 L .162 .39100004 L .162 0 L .092 0 L .092 .39100004 L 0 .39100004 L 0 .43600003 L .092 .453 L .092 .58000007 L .162 .60400006 Z "/>
</symbol>
<symbol id="font_1_10">
<path d="M .21100003 .45600004 C .21633335 .456 .22066669 .4556667 .224 .455 C .228 .455 .23200004 .4546667 .23600003 .45400004 L .23600003 .38200004 L .20600003 .38200004 C .19133336 .3806667 .17666668 .37600003 .162 .36800004 C .148 .36 .13466667 .349 .122 .335 C .11000001 .3216667 .09933334 .30600003 .089999999 .28800003 C .08066666 .2706667 .074 .2516667 .07 .231 L .07 0 L 0 0 L 0 .448 L .059 .448 L .065000008 .34300003 L .074999999 .34300003 C .08166667 .359 .089666668 .37366668 .099 .38700003 C .109 .40100003 .120000008 .41300003 .132 .423 C .14400001 .433 .15666668 .441 .17000002 .44700004 C .18333335 .45300005 .19700003 .456 .21100003 .45600004 Z "/>
</symbol>
<use xlink:href="#font_1_13" transform="matrix(24,0,0,-24,113.47739,108.64274)"/>
<use xlink:href="#font_1_f" transform="matrix(24,0,0,-24,124.99739,113.25074)"/>
<use xlink:href="#font_1_11" transform="matrix(24,0,0,-24,136.10939,108.64274)"/>
<use xlink:href="#font_1_12" transform="matrix(24,0,0,-24,144.6294,108.35474)"/>
<use xlink:href="#font_1_10" transform="matrix(24,0,0,-24,153.0774,108.35474)"/>
<use xlink:href="#font_1_8" transform="matrix(24,0,0,-24,160.03739,108.64274)"/>
<use xlink:href="#font_1_6" transform="matrix(24,0,0,-24,170.64539,108.66673)"/>
<use xlink:href="#font_1_d" transform="matrix(24,0,0,-24,181.87738,108.35474)"/>
<use xlink:href="#font_1_1" transform="matrix(24,0,0,-24,198.31739,108.35474)"/>
</g>
<g id="Layer-1" data-name="P">
<symbol id="font_1_b">
<path d="M .337 .437 L .16100002 .25300003 L .16100002 .252 L .35400004 .028 L .35400004 .025000003 L .29700003 0 L .11000001 .21700002 L .07 .17600002 L .07 .010000001 L 0 .010000001 L 0 .69 L .07 .702 L .07 .252 L .07400001 .252 L .28700004 .46800003 L .337 .44 L .337 .437 Z "/>
</symbol>
<symbol id="font_1_a">
<path d="M .08400001 .45200003 L .08400001 0 L .014000006 0 L .014000006 .44300003 L .08400001 .45200003 M 0 .629 C 0 .64433339 .004666669 .6566667 .014000006 .666 C .024000006 .67600008 .03566667 .68100008 .049000004 .68100008 C .062333336 .68100008 .07366667 .67600008 .083000008 .666 C .093 .6566667 .09800001 .64433339 .098000008 .629 C .09800001 .6156667 .093 .6036667 .083000008 .59300008 C .07366667 .583 .062333336 .578 .049000004 .578 C .03566667 .578 .024000006 .583 .014000006 .59300008 C .004666669 .6036667 0 .6156667 0 .629 Z "/>
</symbol>
<symbol id="font_1_e">
<path d="M .069 .39400003 C .088999997 .41400004 .11166666 .43000005 .137 .44200004 C .16233334 .454 .18900001 .46 .21700001 .46 C .23566668 .46 .25300003 .45700003 .26900003 .45100004 C .2856667 .4456667 .30000005 .43700005 .312 .425 C .324 .41300003 .33333335 .3976667 .34000004 .379 C .3466667 .36033336 .35000003 .33800004 .35000003 .312 L .35000003 0 L .28000004 0 L .28000004 .291 C .28000004 .3116667 .2776667 .3286667 .27300004 .342 C .26833336 .35533334 .26200003 .36600004 .254 .374 C .246 .382 .23666668 .3876667 .22600001 .39100004 C .21533335 .39433337 .20433335 .39600004 .19300002 .39600004 C .16966667 .39600004 .147 .38966669 .125 .377 C .10300001 .365 .08466667 .349 .07 .32900004 L .07 0 L 0 0 L 0 .448 L .058 .448 L .065000008 .39400003 L .069 .39400003 Z "/>
</symbol>
<use xlink:href="#font_1_b" transform="matrix(24,0,0,-24,123.19739,137.59474)"/>
<use xlink:href="#font_1_a" transform="matrix(24,0,0,-24,133.78139,137.35474)"/>
<use xlink:href="#font_1_e" transform="matrix(24,0,0,-24,139.27739,137.35474)"/>
<use xlink:href="#font_1_6" transform="matrix(24,0,0,-24,150.3654,137.66674)"/>
<use xlink:href="#font_1_11" transform="matrix(24,0,0,-24,160.94939,137.64273)"/>
<use xlink:href="#font_1_8" transform="matrix(24,0,0,-24,169.99739,137.64273)"/>
<use xlink:href="#font_1_11" transform="matrix(24,0,0,-24,180.6294,137.64273)"/>
</g>
<g id="Layer-1" data-name="P">
</g>
<g id="Layer-1" data-name="P">
<symbol id="font_1_18">
<path d="M .010000002 .39900003 L .048000006 .693 L .40300004 .693 L .393 .62100008 L .104 .62900009 L .082 .46200005 C .09333334 .46333338 .10466667 .4643334 .116 .46500004 C .128 .46566669 .13966668 .466 .15100001 .46600003 C .19900002 .466 .24033337 .46033336 .275 .44900004 C .30966667 .43766669 .33800004 .42200006 .36 .40200005 C .382 .3826667 .398 .36 .40800003 .33400003 C .4186667 .308 .42400003 .28033338 .42400003 .25100003 C .42400003 .21100001 .4156667 .17533334 .39900003 .14400001 C .38300003 .11266667 .36033333 .086333338 .331 .065 C .30233336 .043666666 .268 .027333335 .22800002 .016 C .18800001 .0053333339 .14433334 0 .097 0 C .078999999 0 .061666665 .0006666665 .045000007 .0019999995 C .029000005 .003333333 .014000001 .006333333 0 .011 C .0020000016 .021666667 .004000002 .032333334 .006000001 .043 C .008666668 .05366667 .011333335 .06433334 .014000002 .075 C .025333336 .07166667 .039 .069000009 .055000005 .067 C .071666669 .06566667 .08699999 .065 .100999999 .065 C .13966668 .065 .17400001 .06933334 .204 .07800001 C .23466666 .087333347 .26066668 .1 .282 .11600001 C .30333335 .13200002 .31966666 .15100001 .331 .17300001 C .34233336 .19566667 .34800003 .22066666 .34800003 .24800001 C .34800003 .2746667 .342 .2976667 .33 .31700004 C .3186667 .33700005 .303 .35333336 .28300003 .36600004 C .263 .37933339 .23966669 .38900004 .213 .39500005 C .18699999 .40166674 .15900001 .40500007 .12900001 .40500004 C .101 .40500007 .07766666 .40400005 .059000005 .40200005 C .041000006 .4 .026000003 .398 .014000002 .39600004 L .010000002 .39900003 Z "/>
</symbol>
<symbol id="font_1_17">
<path d="M .0020000004 .111 C .032 .09566667 .061 .084 .089 .076000008 C .117666687 .06866667 .14766668 .065 .17900002 .065 C .20233333 .065 .22399999 .067999999 .244 .074 C .26466669 .08066667 .28233335 .09 .297 .102 C .31233333 .114 .32433335 .12866667 .333 .146 C .3416667 .164 .34600006 .18466668 .34600003 .208 C .34600006 .22533334 .34233336 .24166668 .335 .25700004 C .32833336 .27233336 .31866668 .2856667 .306 .29700003 C .29333333 .30833338 .278 .31700004 .26 .323 C .24266668 .32900004 .22366667 .33166669 .20300001 .33100004 L .074 .32700003 L .082 .39800004 L .19700001 .39500005 C .21566667 .39433337 .23333335 .39700005 .25 .40300004 C .26666669 .4096667 .28100003 .4186667 .293 .43000005 C .3056667 .44133339 .31566669 .4546667 .323 .47000004 C .33033333 .48533336 .334 .50200006 .334 .52000007 C .334 .558 .32066668 .5876667 .294 .609 C .268 .63100007 .233 .642 .18900001 .642 C .16366668 .642 .13900002 .6386667 .11500001 .632 C .09100001 .626 .065666679 .61633339 .039 .60300007 L .035 .60400006 L .043 .67100009 C .057666664 .67833337 .078 .68600007 .104 .69400009 C .13000001 .7020001 .15900001 .70600005 .19100002 .70600005 C .223 .70600005 .25233335 .7020001 .279 .69400009 C .3056667 .68600007 .3286667 .6743334 .34800003 .65900006 C .36733333 .64433339 .38233338 .626 .393 .60400006 C .40366666 .5826667 .409 .558 .409 .53000006 C .409 .49 .398 .456 .37600003 .42800004 C .35466669 .4 .326 .38133336 .29 .37200005 L .29 .36600004 C .31133334 .36133338 .33 .3536667 .34600003 .34300003 C .3626667 .33233337 .37633337 .31933335 .387 .30400003 C .39833335 .28933338 .40666668 .27333335 .412 .256 C .41799999 .23866667 .421 .22133334 .421 .20400001 C .421 .16466667 .41300003 .132 .397 .106000009 C .38166667 .080000009 .36166669 .059 .337 .043 C .313 .027666668 .28666667 .016666666 .25800003 .01 C .22933336 .0033333332 .20200002 0 .17600002 0 C .14066668 0 .109000008 .0033333332 .081 .01 C .053000004 .016666666 .027 .026333332 .0030000024 .039 L 0 .109 L .0020000004 .111 Z "/>
</symbol>
<use xlink:href="#font_1_f" transform="matrix(24,0,0,-24,138.0774,229.92884)"/>
<use xlink:href="#font_1_18" transform="matrix(24,0,0,-24,149.7654,225.34484)"/>
<use xlink:href="#font_1_17" transform="matrix(24,0,0,-24,162.2694,225.34484)"/>
</g>
<g id="Layer-1" data-name="P">
<path transform="matrix(0,1,-1,-0,155.1174,147.72473)" stroke-width="2" stroke-linecap="butt" stroke-miterlimit="4" stroke-linejoin="miter" fill="none" stroke="#000000" d="M 0 0 L 43.29999 0 L 44.29999 0 "/>
<path transform="matrix(1,0,0,-1,-339.8215,673.8685)" d="M 490.1389 485.2438 L 494.9389 475.6438 L 499.7389 485.2438 L 494.9389 482.8438 Z "/>
</g>
<g id="Layer-1" data-name="P">
<path transform="matrix(1,0,0,1,186.8674,216.72473)" stroke-width="2" stroke-linecap="butt" stroke-miterlimit="4" stroke-linejoin="miter" fill="none" stroke="#000000" d="M 0 0 L 43.29999 0 L 44.29999 0 "/>
<path transform="matrix(1,0,0,-1,-339.8215,673.8685)" d="M 567.5889 452.3438 L 577.1889 457.1438 L 567.5889 461.9438 L 569.9889 457.1438 Z "/>
</g>
<g id="Layer-1" data-name="P">
<path transform="matrix(-1,-0,0,-1,123.3674,216.72473)" stroke-width="2" stroke-linecap="butt" stroke-miterlimit="4" stroke-linejoin="miter" fill="none" stroke="#000000" d="M 0 0 L 43.29999 0 L 44.29999 0 "/>
<path transform="matrix(1,0,0,-1,-339.8215,673.8685)" d="M 422.2889 461.9438 L 412.6889 457.1438 L 422.2889 452.3438 L 419.8889 457.1438 Z "/>
</g>
<g id="Layer-1" data-name="P">
</g>
<g id="Layer-1" data-name="P">
<symbol id="font_1_3">
<path d="M .587 .47800002 L .37000004 0 L .36400003 0 L .14500001 .47800002 L .14000002 .477 L .07100001 .0030000006 L 0 .011000001 L .104 .698 L .11700001 .70000007 L .36600004 .15400002 L .37000004 .15400002 L .616 .70000007 L .629 .699 L .734 .011000001 L .663 .0030000006 L .592 .477 L .587 .47800002 Z "/>
</symbol>
<symbol id="font_1_16">
<path d="M .050000006 .638 C .054 .64133337 .06133334 .64599999 .072000008 .652 C .08266667 .658 .09600001 .66400006 .112 .67 C .128 .67600008 .14633334 .68133339 .16700001 .68600007 C .18766667 .6906667 .21000003 .693 .23400001 .693 C .26266668 .693 .28966669 .6893334 .315 .68200007 C .341 .6753333 .36366669 .6643334 .38300003 .64900007 C .40233336 .6343334 .41733334 .6153334 .428 .592 C .43933336 .5686667 .44500003 .54033336 .44500003 .507 C .44500003 .43833337 .41733337 .36866669 .36200003 .298 C .3066667 .228 .22866668 .15333334 .128 .074 L .13200002 .067 L .455 .07300001 L .455 0 L .01 0 L 0 .035 C .07 .09233334 .12833335 .14366667 .17500001 .18900001 C .22233336 .23500002 .26033334 .27633337 .289 .31300003 C .31766669 .35033337 .33800004 .38366667 .35 .41300003 C .3626667 .44300006 .36900006 .47033338 .36900003 .49500004 C .36900006 .53900006 .35600005 .572 .33 .59400007 C .30466668 .616 .271 .62700006 .22900002 .62700006 C .209 .62700006 .18966668 .6246667 .171 .62 C .15233334 .6153334 .13533335 .6096667 .120000008 .60300007 C .105333339 .5963334 .09233334 .58966669 .08100001 .583 C .069666679 .57699999 .06133334 .572 .056 .568 L .050000006 .638 Z "/>
</symbol>
<use xlink:href="#font_1_3" transform="matrix(24,0,0,-24,2.9494038,225.27285)"/>
<use xlink:href="#font_1_7" transform="matrix(24,0,0,-24,23.037405,225.32083)"/>
<use xlink:href="#font_1_d" transform="matrix(24,0,0,-24,35.27741,225.03284)"/>
<use xlink:href="#font_1_16" transform="matrix(24,0,0,-24,52.413408,225.03284)"/>
</g>
<g id="Layer-1" data-name="P">
</g>
<g id="Layer-1" data-name="P">
<symbol id="font_1_5">
<path d="M .41500003 .517 L .266 0 L .24000001 0 L 0 .684 L .068 .70000007 L .24599999 .184 L .254 .184 L .404 .70400008 L .43 .70400008 L .586 .184 L .59400007 .184 L .76500007 .70000007 L .83400008 .684 L .595 0 L .569 0 L .42200003 .517 L .41500003 .517 Z "/>
</symbol>
<symbol id="font_1_15">
<path d="M .14000002 0 L .14000002 .614 L .0060000049 .59800007 L 0 .66300007 L .19500003 .688 L .21200001 .67600008 L .21200001 0 L .14000002 0 Z "/>
</symbol>
<use xlink:href="#font_1_5" transform="matrix(24,0,0,-24,250.94944,225.34484)"/>
<use xlink:href="#font_1_a" transform="matrix(24,0,0,-24,272.74147,225.03284)"/>
<use xlink:href="#font_1_f" transform="matrix(24,0,0,-24,278.23744,229.92884)"/>
<use xlink:href="#font_1_15" transform="matrix(24,0,0,-24,290.38145,225.03284)"/>
</g>
<g id="Layer-1" data-name="P">
<path transform="matrix(1,0,0,1,213.36258,106.98401)" stroke-width="2" stroke-linecap="butt" stroke-miterlimit="4" stroke-linejoin="miter" fill="none" stroke="#000000" d="M 68.83112 92.34837 C 70.48933 31.88061 48.37223 1.107603 2.479827 .02935572 L 1.479896 .01751873 "/>
<path transform="matrix(-.01893917,1.599888,-1.599888,-.01893917,214.6193,102.19855)" stroke-width="1.25" stroke-linecap="butt" stroke-miterlimit="10" stroke-linejoin="miter" fill="none" stroke="#000000" d="M 0 0 L 6 0 "/>
</g>
<g id="Layer-1" data-name="P">
<path transform="matrix(1,0,0,1,29.199097,107.10492)" stroke-width="2" stroke-linecap="butt" stroke-miterlimit="4" stroke-linejoin="miter" fill="none" stroke="#000000" d="M .05394965 90.86874 L .03179428 89.86898 C -.9760152 29.9745 21.98601 .01840412 68.91786 0 "/>
<path transform="matrix(1.599607,-.03544859,.03544859,1.599607,24.460389,198.35993)" stroke-width="1.25" stroke-linecap="butt" stroke-miterlimit="10" stroke-linejoin="miter" fill="none" stroke="#000000" d="M 0 0 L 6 0 "/>
</g>
<g id="Layer-1" data-name="P">
<path transform="matrix(1,0,0,1,33.228303,235.76404)" stroke-width="2" stroke-linecap="butt" stroke-miterlimit="4" stroke-linejoin="miter" fill="none" stroke="#000000" d="M 100.4135 5.689613 L 99.72762 6.417288 C 67.03984 40.45674 33.79731 38.31763 0 0 "/>
<path transform="matrix(-1.164279,-1.097477,1.097477,-1.164279,137.32669,244.54224)" stroke-width="1.25" stroke-linecap="butt" stroke-miterlimit="10" stroke-linejoin="miter" fill="none" stroke="#000000" d="M 0 0 L 6 0 "/>
</g>
<g id="Layer-1" data-name="P">
</g>
<g id="Layer-1" data-name="P">
<symbol id="font_1_c">
<path d="M .07 .69200006 L .07 0 L 0 0 L 0 .68 L .07 .69200006 Z "/>
</symbol>
<symbol id="font_1_14">
<path d="M .26000003 .069000009 L .26000003 0 L 0 0 L 0 .069000009 L .26000003 .069000009 Z "/>
</symbol>
<use xlink:href="#font_1_4" transform="matrix(24,0,0,-24,47.277498,352.47074)"/>
<use xlink:href="#font_1_13" transform="matrix(24,0,0,-24,64.725498,352.54273)"/>
<use xlink:href="#font_1_12" transform="matrix(24,0,0,-24,75.2375,352.25474)"/>
<use xlink:href="#font_1_c" transform="matrix(24,0,0,-24,84.0455,352.25474)"/>
<use xlink:href="#font_1_a" transform="matrix(24,0,0,-24,89.2295,352.25474)"/>
<use xlink:href="#font_1_e" transform="matrix(24,0,0,-24,94.725498,352.25474)"/>
<use xlink:href="#font_1_14" transform="matrix(24,0,0,-24,105.6455,347.33473)"/>
<use xlink:href="#font_1_17" transform="matrix(24,0,0,-24,113.8775,352.56675)"/>
</g>
<g id="Layer-1" data-name="P">
<path transform="matrix(0,-1,1,0,85.24548,325.44664)" stroke-width="2" stroke-linecap="butt" stroke-miterlimit="4" stroke-linejoin="miter" fill="none" stroke="#000000" d="M 0 0 L 48.01999 0 L 49.01999 0 "/>
<path transform="matrix(-1.6,-0,0,-1.6,90.0455,276.14665)" stroke-width="1.25" stroke-linecap="butt" stroke-miterlimit="10" stroke-linejoin="miter" fill="none" stroke="#000000" d="M 0 0 L 6 0 "/>
</g>
</g>
</g>
</svg>
